<?xml version="1.0" encoding="iso-8859-1"?>
<!-- Generator: Adobe Illustrator 18.0.0, SVG Export Plug-In . SVG Version: 6.00 Build 0)  -->
<!DOCTYPE svg PUBLIC "-//W3C//DTD SVG 1.1//EN" "http://www.w3.org/Graphics/SVG/1.1/DTD/svg11.dtd">
<svg version="1.1" id="dagger" xmlns="http://www.w3.org/2000/svg" xmlns:xlink="http://www.w3.org/1999/xlink" x="0px" y="0px"
	 viewBox="0 0 813.7 968" style="enable-background:new 0 0 813.7 968;" xml:space="preserve">
<g id="dagger-dagger">
	<path d="M289.8,823.8c2.3-0.4,4.5-0.7,6.7-1c17.4-2.3,34.7-4.7,52.1-6.9c14.9-1.9,29.7-3.8,44.6-5.7c5.7-0.7,10.2,1.3,13.6,5.7
		c4,5.2,5.1,11.2,4.8,17.5c-0.6,13.3-5.6,24.5-15.9,33.1c-0.3,0.3-0.7,0.4-0.9,0.5c1,3,1.7,3.6,4.2,3.4c1.9-0.1,3.7-0.6,5.5-0.7
		c12.2-0.3,24.2-2.6,36.3-4.1c10.3-1.3,17.7,2.9,22.8,11.6c3.5,5.9,4.9,12.4,5,19.1c0.3,18.1-5.6,34-17.9,47.4
		c-5.5,6-12,10.4-20.2,11.7c-6.2,1-12.4,1.7-18.6,2.5c-3.1,0.4-6.2,0.8-9.7,1.3c2.7-20.8,5.4-41.2,8-61.5c-0.4-0.3-0.6-0.5-0.7-0.4
		c-5,0.5-10.1,0.1-15.1,1.1c-2,0.4-4.1,0.4-6.1,0.1c-3.9-0.5-6.5-3-8.6-6.1c-3.5-5.3-7-10.6-10.6-15.9c-0.5-0.7-1-1.4-1.9-2.7
		c-1.3,10-2.5,19.3-3.7,28.8c-6.7,0.9-13.1,1.8-20.1,2.7c2.7-20.8,5.4-41.3,8.1-62.1c-15.2,1.4-29.8,3.8-44.9,5.6
		c-0.3,2.2-0.7,4.3-1.1,6.8c10.1-1.3,19.7-2.6,29.8-3.9c-0.5,7-1.7,13.7-2.5,20.7c-3.3,0.5-6.5,1-9.8,1.4
		c-6.1,0.8-12.2,1.7-18.3,2.4c-1.4,0.2-2.1,0.7-2.2,2.2c-0.1,1.5-0.3,2.9-0.5,4.8c6.7-0.5,13.2-1.7,19.7-2.4
		c6.6-0.8,13.2-1.8,20.2-2.7c-1.1,9.4-2.3,18.4-3.6,27.7c-20,2.7-39.8,5.3-60.1,8C282.1,883.5,285.9,853.8,289.8,823.8z
		 M430.6,894.3c-1.5,11.5-3,22.8-4.5,34.4c2.4-0.3,4.3-0.6,6.2-0.8c3.7-0.3,6.7-2,9.2-4.7c5-5.5,7.3-12,6.8-19.4
		c-0.2-2.1-0.8-4.3-1.8-6.1c-1.8-3.4-4.8-5.1-8.8-4.5C435.4,893.6,433.2,893.9,430.6,894.3z M370.4,849.5c1,0,1.6,0.1,2.2,0
		c3.6-0.5,7.1-1,10.7-1.5c5.7-0.8,8.6-4.5,8-10.1c-0.3-2.5-1.6-3.9-4-3.7c-4.9,0.5-9.8,1.2-14.9,1.8
		C371.7,840.6,371.1,844.9,370.4,849.5z"/>
	<path d="M789.5,876.5c1.3,2.8,2.1,3.3,4.8,3c2-0.2,4.1-0.6,6.1-0.9c1-0.1,2.1-0.2,3.5-0.3c-1.2,9.3-2.4,18.3-3.6,27.5
		c-3.3,0.5-6.5,0.9-9.6,1.4c-0.9,0.1-1.8,0.2-2.6,0.3c-5.8,1-10.2-1.1-13.4-5.8c-2.8-4.1-5.5-8.3-8.3-12.5c-1.3-1.9-2.6-3.9-4.3-6.5
		c-1.6,9.8-2.4,19.1-3.9,28.6c-6.5,1.2-13,1.8-20,2.8c2.7-20.8,5.4-41.4,8.1-62.2c-15.1,2-29.7,4-44.6,6c-0.3,2.2-0.7,4.3-1.1,6.8
		c10.1-1.3,19.8-2.6,29.9-3.9c-0.9,7.1-1.7,13.8-2.6,20.8c-10,1.4-19.9,2.7-30,4.1c-0.3,2.2-0.6,4.3-0.9,6.8
		c13.4-1.8,26.5-3.5,40-5.3c-1.2,9.3-2.4,18.4-3.6,27.7c-20,2.7-39.9,5.3-60.2,8c3.9-30.1,7.8-59.9,11.6-89.9c2.2-0.3,4.3-0.7,6.4-1
		c16.4-2.2,32.8-4.4,49.2-6.6c15.5-2.1,31-4.2,46.6-6.4c7.1-1,12.5,1.6,16,7.8c2.9,5.1,3.8,10.7,3.3,16.5
		c-0.9,12.9-6,23.8-16.1,32.2C789.9,875.9,789.8,876.2,789.5,876.5z M765,858.9c4.7-0.6,8.8-1.1,12.8-1.6c5.5-0.7,8.2-4,8.1-9.6
		c-0.1-3.2-1.7-4.7-4.8-4.4c-4.6,0.5-9.3,1.2-14.2,1.9C766.3,849.7,765.7,854,765,858.9z"/>
	<path d="M7.4,949.5c2.7-20.7,5.3-41,8.1-61.8c-2.4,0.2-4.5,0.4-7,0.6c1.2-9.2,2.4-18.3,3.6-27.5c2.7-0.4,5.2-0.8,7.7-1.1
		c8.4-1.1,16.9-2.2,25.3-3.4c10.9-1.5,18.9,2.4,24.2,12.1c2.5,4.5,3.9,9.5,4.3,14.5c1.6,21.9-5.4,40.5-21.7,55.3
		c-5,4.6-11.1,7.3-17.9,8.1c-8,0.9-15.9,2.1-23.9,3.2C9.3,949.6,8.5,949.5,7.4,949.5z M31.1,919.4c2.5-0.3,4.5-0.6,6.4-0.8
		c3.4-0.3,6.2-1.8,8.5-4.1c4.1-4.1,6.4-9.1,7.2-14.8c0.5-3.7,0.3-7.2-1.3-10.6c-1.4-2.9-3.6-5.1-6.9-5.1c-3.1,0-6.1,0.6-9.3,0.9
		C34.2,896.4,32.7,907.6,31.1,919.4z"/>
	<path d="M219.8,833.3c-1.2,9.4-2.3,18.4-3.4,27.6c-2.3,0.4-4.5,0.7-6.7,1c-6.5,0.9-13,1.8-19.5,2.5c-3.8,0.4-7,2-9.5,4.8
		c-5.7,6.4-8.2,13.7-6.4,22.2c0.4,1.7,1.4,3.5,2.5,4.9c1.5,2.1,3.8,3.1,6.4,2.9c2.7-0.2,5.4-0.6,8.4-1c0.9-6.9,1.9-13.8,2.8-20.8
		c6.7-0.9,13.1-1.8,20.1-2.7c-2,16.3-4.2,32.3-6.3,48.4c-2.5,0.4-4.9,0.8-7.3,1.1c-6.8,0.9-13.6,1.8-20.4,2.7
		c-7.5,1-13.7-1.3-18.8-6.9c-4.9-5.4-7.2-11.9-7.9-18.9c-2.1-20.9,4.5-38.8,19-53.8c6-6.2,13.2-9.8,21.9-10.7
		C202.8,835.8,211,834.4,219.8,833.3z"/>
	<path d="M256.6,889.4c0.9-7,1.8-13.8,2.8-20.8c6.7-0.9,13.2-1.8,20.2-2.7c-2.2,16.3-4.3,32.2-6.4,48.2c-0.8,0.2-1.5,0.5-2.3,0.6
		c-8.8,1.2-17.7,2.5-26.5,3.5c-6.7,0.8-12.5-1.5-17.2-6.5c-4.6-4.9-7.2-10.8-8.1-17.3c-3-22.4,4-41.6,20.1-57.3
		c5.6-5.5,12.5-8.6,20.4-9.4c7.9-0.8,15.7-2.1,23.6-3.1c0.4-0.1,0.8,0,1.6-0.1c-1.1,9.2-2.3,18.3-3.4,27.5c-4,0.6-7.7,1.1-11.5,1.6
		c-5,0.7-10.1,1.3-15.2,2c-3.5,0.4-6.4,1.9-8.7,4.4c-5.6,5.9-8.1,12.9-6.9,21c0.3,2.1,1.2,4.1,2.3,5.9c1.6,2.6,4.2,3.8,7.3,3.4
		C251.2,890.1,253.7,889.8,256.6,889.4z"/>
	<path d="M614.3,842.6c-1.2,9.3-2.3,18.3-3.4,27.4c-3.1,0.4-6,0.9-9,1.3c-6.1,0.8-12.2,1.5-18.3,2.5c-2,0.3-4,1.1-5.6,2.2
		c-7.2,4.9-11.3,16.1-9,24.5c0.5,1.9,1.6,3.8,2.9,5.4c1.5,1.9,3.8,2.8,6.3,2.5c2.6-0.3,5.2-0.7,8.1-1.1c0.5-3.5,1-6.8,1.4-10.2
		c0.5-3.4,0.9-6.8,1.3-10.6c6.6-0.9,13.1-1.8,20.1-2.7c-1.9,16.3-4.2,32.2-6.3,48.3c-0.7,0.2-1.4,0.4-2,0.4
		c-8.1,1.1-16.3,2.2-24.4,3.3c-10.6,1.5-18.7-2.7-23.9-12.2c-3.7-6.8-4.8-14.3-4.6-21.9c0.6-16.1,6.1-30.4,16.8-42.6
		c2.9-3.3,6-6.2,9.7-8.5c3.9-2.5,8.2-4.1,12.8-4.7c8.1-1,16.1-2.2,24.2-3.3C612.2,842.6,613,842.7,614.3,842.6z"/>
	<path d="M651.5,898.5c0.9-7,1.8-13.8,2.8-20.8c6.6-0.9,13.1-1.8,19.6-2.6c0.4,2.1-4.8,43.8-6.1,48.5c-4.6,0.6-9.4,1.3-14.1,1.9
		c-3.9,0.5-7.8,1-11.6,1.6c-10.8,1.6-19-2.5-24.2-12.1c-3.7-6.9-4.9-14.5-4.6-22.2c0.6-15.8,5.9-29.9,16.4-41.8
		c2.7-3.1,5.8-5.8,9.1-8.3c4.1-3.1,8.9-4.9,14.1-5.5c8.1-1,16.1-2.2,24.2-3.3c0.8-0.1,1.5-0.1,2.7-0.2c-0.9,9.2-2.2,18.3-3.3,27.5
		c-4.9,0.7-9.7,1.3-14.4,1.9c-4.5,0.6-9,1-13.4,1.9c-1.9,0.3-3.8,1.2-5.3,2.3c-7.1,4.9-11.1,16-8.9,24.3c0.5,1.9,1.6,3.8,2.8,5.4
		c1.3,1.8,3.4,2.8,5.7,2.6C645.6,899.4,648.4,898.9,651.5,898.5z"/>
	<path d="M537.8,941c-7.1,0.9-13.8,1.9-20.9,2.8c-0.4-3.6-0.8-6.9-1.2-10.4c-0.4-0.1-0.8-0.2-1.2-0.2c-6.6,0.9-13.2,1.8-19.8,2.6
		c-1.5,0.2-2.2,0.8-2.7,2.2c-0.8,2.6-1.8,5.2-2.7,7.8c-0.3,1-0.7,1.8-1.9,1.9c-6.2,0.8-12.4,1.6-18.6,2.4c-0.3,0-0.6-0.1-1.1-0.2
		c11.2-30.9,22.4-61.6,33.6-92.5c8.7-1.2,17.3-2.3,26.1-3.5C530.9,883.2,534.3,912,537.8,941z M512.9,914.4
		c0.1-4.2-2.4-21.5-3.4-23.7c-3.1,8.5-6.2,16.8-9.4,25.5C504.7,915.5,508.7,915,512.9,914.4z"/>
	<path d="M72.8,941.3c0.5-1.6,0.8-2.6,1.2-3.6c10.5-28.9,21-57.8,31.4-86.7c0.7-1.9,1.6-2.8,3.7-3c7.1-0.8,14.2-1.9,21.3-2.8
		c0.6-0.1,1.2-0.1,2.2-0.1c3.5,28.8,6.9,57.7,10.4,86.9c-7,0.9-13.8,1.9-20.9,2.8c-0.4-3.6-0.8-6.9-1.2-10.5
		c-2.7,0.3-5.3,0.6-7.9,0.9c-4.3,0.5-8.5,1.2-12.8,1.7c-1.6,0.2-2.5,0.7-2.9,2.3c-0.9,3.1-2.1,6.1-3.3,9.4
		C87.1,939.4,80.2,940.3,72.8,941.3z M115.2,881.9c-0.2,0-0.5-0.1-0.7-0.1c-3,8.2-6.1,16.4-9.3,25.2c4.7-0.6,8.8-1.2,13.1-1.7
		C117.3,897.2,116.2,889.6,115.2,881.9z"/>
</g>
<g id="dagger-right">
	<path id="dagger-left" d="M220.8,104.6c-6.7-1-7.8-10.7-1.1-12.7c-4.9-8.1-4.4-18.7-4.5-27.8c-0.2-17.9-2.8-44.4,17.4-51.7
		c15.5-5.5,35.6-2.9,51.9-3.3c8.9-0.2,18.5,0.6,26.5,4.8c10.6,5.7,10.6,15.8,11.5,26.5c3.8,44.2,2.1,89.3,1.4,133.6
		c-0.7,42.6-0.7,85.5-3.1,128c-1.8,32.3-10.6,85.3,34.3,89.4c6.8,0.6-5.6,13.3-7.9,14.5c-6.2,3.2-14.6,4.6-18.6,10.9
		c-6.1,9.6,2.5,6.8,5.5,12.9c3.3,6.8,1,21.9,1.5,29.5c5.2,85.2,11.3,172.6-36,248.2c-10.6,16.9-23.2,33-37.4,47
		c-9.6-24.3-13.8-51.7-18.5-77.3c-5.3-28.5-8.7-57.2-11.3-86.1c-5.3-58.4-4.8-117.1-4.5-175.7c0-5.6,1.4-12.9-1.8-17.9
		c-3.4-5.3-5.1-11.4-5.9-17.6c-0.9-7-0.9-14-0.2-21c0.4-3.8,3.6-13.3,2.3-16.9c-1.9-5.3-3.6-2.3-3.9-10.2
		c-0.2-7.1-0.4-14.3-0.6-21.4c-0.4-15.6-0.8-31.3-1.1-46.9c-0.7-29.6-1.1-59.2-1.6-88.8c-0.2-13.9-0.5-27.8-0.7-41.7
		c-0.1-5.9-0.2-11.9-0.3-17.8c-0.4-2.5-0.2-4.9,0.6-7.2C216,106.2,220.2,106,220.8,104.6C217,104,220.7,104.7,220.8,104.6z"/>
</g>
<g id="dagger-left_1_">
	<path id="dagger-right_2_" d="M458.8,104.6c-6.7-1-7.8-10.7-1.1-12.7c-4.9-8.1-4.4-18.7-4.5-27.8c-0.2-17.9-2.8-44.4,17.4-51.7
		c15.5-5.5,35.6-2.9,51.9-3.3c8.9-0.2,18.5,0.6,26.5,4.8c10.6,5.7,10.6,15.8,11.5,26.5c3.8,44.2,2.1,89.3,1.4,133.6
		c-0.7,42.6-0.7,85.5-3.1,128c-1.8,32.3-10.6,85.3,34.3,89.4c6.8,0.6-5.6,13.3-7.9,14.5c-6.2,3.2-14.6,4.6-18.6,10.9
		c-6.1,9.6,2.5,6.8,5.5,12.9c3.3,6.8,1,21.9,1.5,29.5c5.2,85.2,11.3,172.6-36,248.2c-10.6,16.9-23.2,33-37.4,47
		c-9.6-24.3-13.8-51.7-18.5-77.3c-5.3-28.5-8.7-57.2-11.3-86.1c-5.3-58.4-4.8-117.1-4.5-175.7c0-5.6,1.4-12.9-1.8-17.9
		c-3.4-5.3-5.1-11.4-5.9-17.6c-0.9-7-0.9-14-0.2-21c0.4-3.8,3.6-13.3,2.3-16.9c-1.9-5.3-3.6-2.3-3.9-10.2
		c-0.2-7.1-0.4-14.3-0.6-21.4c-0.4-15.6-0.8-31.3-1.1-46.9c-0.7-29.6-1.1-59.2-1.6-88.8c-0.2-13.9-0.5-27.8-0.7-41.7
		c-0.1-5.9-0.2-11.9-0.3-17.8c-0.4-2.5-0.2-4.9,0.6-7.2C454,106.2,458.2,106,458.8,104.6C455,104,458.7,104.7,458.8,104.6z"/>
</g>
</svg>
