<?xml version="1.0" encoding="iso-8859-1"?>
<!-- Generator: Adobe Illustrator 18.0.0, SVG Export Plug-In . SVG Version: 6.00 Build 0)  -->
<!DOCTYPE svg PUBLIC "-//W3C//DTD SVG 1.1//EN" "http://www.w3.org/Graphics/SVG/1.1/DTD/svg11.dtd">
<svg version="1.1" id="Layer_1" xmlns="http://www.w3.org/2000/svg" xmlns:xlink="http://www.w3.org/1999/xlink" x="0px" y="0px"
	 viewBox="0 0 409.6 479.6" style="enable-background:new 0 0 409.6 479.6;" xml:space="preserve">
<g id="dagger-dagger">
	<path d="M152.4,407.9c1.1-0.2,2.2-0.4,3.2-0.5c8.4-1.1,16.8-2.2,25.1-3.3c7.2-0.9,14.3-1.8,21.5-2.8c2.7-0.4,4.9,0.6,6.6,2.8
		c1.9,2.5,2.5,5.4,2.3,8.4c-0.3,6.4-2.7,11.8-7.7,16c-0.1,0.1-0.3,0.2-0.4,0.3c0.5,1.5,0.8,1.7,2,1.6c0.9-0.1,1.8-0.3,2.7-0.3
		c5.9-0.2,11.7-1.3,17.5-2c5-0.6,8.5,1.4,11,5.6c1.7,2.8,2.3,6,2.4,9.2c0.1,8.7-2.7,16.4-8.6,22.9c-2.7,2.9-5.8,5-9.7,5.6
		c-3,0.5-6,0.8-9,1.2c-1.5,0.2-3,0.4-4.7,0.6c1.3-10,2.6-19.9,3.9-29.7c-0.2-0.1-0.3-0.2-0.4-0.2c-2.4,0.2-4.9,0.1-7.3,0.5
		c-1,0.2-2,0.2-3,0.1c-1.9-0.2-3.1-1.5-4.1-3c-1.7-2.6-3.4-5.1-5.1-7.7c-0.2-0.3-0.5-0.7-0.9-1.3c-0.6,4.8-1.2,9.3-1.8,13.9
		c-3.2,0.4-6.3,0.8-9.7,1.3c1.3-10.1,2.6-19.9,3.9-30c-7.3,0.7-14.4,1.8-21.7,2.7c-0.2,1-0.3,2.1-0.5,3.3c4.9-0.6,9.5-1.3,14.4-1.9
		c-0.2,3.4-0.8,6.6-1.2,10c-1.6,0.2-3.1,0.5-4.7,0.7c-2.9,0.4-5.9,0.8-8.9,1.2c-0.7,0.1-1,0.4-1.1,1c0,0.7-0.2,1.4-0.3,2.3
		c3.2-0.2,6.4-0.8,9.5-1.2c3.2-0.4,6.4-0.8,9.7-1.3c-0.5,4.5-1.1,8.9-1.8,13.4c-9.6,1.3-19.2,2.6-29,3.9
		C148.7,436.7,150.5,422.4,152.4,407.9z M220.3,441.9c-0.7,5.5-1.4,11-2.2,16.6c1.1-0.1,2.1-0.3,3-0.4c1.8-0.1,3.2-1,4.4-2.3
		c2.4-2.6,3.5-5.8,3.3-9.3c-0.1-1-0.4-2.1-0.9-3c-0.9-1.7-2.3-2.4-4.2-2.2C222.6,441.6,221.6,441.7,220.3,441.9z M191.3,420.3
		c0.5,0,0.8,0,1.1,0c1.7-0.2,3.4-0.5,5.2-0.7c2.8-0.4,4.1-2.2,3.8-4.9c-0.1-1.2-0.8-1.9-1.9-1.8c-2.4,0.2-4.7,0.6-7.2,0.9
		C191.9,416,191.6,418.1,191.3,420.3z"/>
	<path d="M393.4,433.3c0.6,1.4,1,1.6,2.3,1.5c1-0.1,2-0.3,2.9-0.4c0.5-0.1,1-0.1,1.7-0.1c-0.6,4.5-1.2,8.8-1.7,13.3
		c-1.6,0.2-3.1,0.4-4.7,0.7c-0.4,0.1-0.8,0.1-1.3,0.2c-2.8,0.5-4.9-0.5-6.5-2.8c-1.3-2-2.7-4-4-6c-0.6-0.9-1.3-1.9-2.1-3.1
		c-0.8,4.7-1.2,9.2-1.9,13.8c-3.1,0.6-6.3,0.9-9.7,1.4c1.3-10.1,2.6-19.9,3.9-30c-7.3,1-14.3,1.9-21.5,2.9c-0.2,1-0.3,2.1-0.5,3.3
		c4.9-0.6,9.6-1.3,14.4-1.9c-0.4,3.4-0.8,6.7-1.3,10c-4.8,0.7-9.6,1.3-14.5,2c-0.1,1.1-0.3,2.1-0.4,3.3c6.5-0.9,12.8-1.7,19.3-2.6
		c-0.6,4.5-1.2,8.9-1.7,13.4c-9.7,1.3-19.2,2.6-29,3.9c1.9-14.5,3.7-28.9,5.6-43.4c1.1-0.2,2.1-0.3,3.1-0.5
		c7.9-1.1,15.8-2.1,23.7-3.2c7.5-1,15-2,22.5-3.1c3.4-0.5,6,0.8,7.7,3.8c1.4,2.5,1.8,5.2,1.6,7.9c-0.5,6.2-2.9,11.5-7.8,15.5
		C393.6,433,393.6,433.2,393.4,433.3z M381.6,424.8c2.3-0.3,4.2-0.5,6.2-0.8c2.7-0.3,4-1.9,3.9-4.6c0-1.5-0.8-2.3-2.3-2.1
		c-2.2,0.2-4.5,0.6-6.8,0.9C382.2,420.4,381.9,422.5,381.6,424.8z"/>
	<path d="M16.2,468.5c1.3-10,2.6-19.8,3.9-29.8c-1.1,0.1-2.1,0.2-3.4,0.3c0.6-4.4,1.2-8.8,1.7-13.3c1.3-0.2,2.5-0.4,3.7-0.5
		c4.1-0.5,8.1-1.1,12.2-1.6c5.2-0.7,9.1,1.2,11.7,5.8c1.2,2.2,1.9,4.6,2.1,7c0.7,10.5-2.6,19.5-10.5,26.7c-2.4,2.2-5.3,3.5-8.6,3.9
		c-3.8,0.5-7.7,1-11.5,1.5C17.1,468.6,16.7,468.5,16.2,468.5z M27.6,454c1.2-0.2,2.1-0.3,3.1-0.4c1.6-0.1,3-0.9,4.1-2
		c2-2,3.1-4.4,3.5-7.1c0.2-1.8,0.2-3.5-0.6-5.1c-0.7-1.4-1.7-2.5-3.3-2.5c-1.5,0-3,0.3-4.5,0.5C29.1,442.9,28.4,448.3,27.6,454z"/>
	<path d="M118.6,412.5c-0.6,4.5-1.1,8.9-1.6,13.3c-1.1,0.2-2.2,0.4-3.2,0.5c-3.1,0.4-6.3,0.9-9.4,1.2c-1.8,0.2-3.4,0.9-4.6,2.3
		c-2.7,3.1-4,6.6-3.1,10.7c0.2,0.8,0.7,1.7,1.2,2.4c0.7,1,1.8,1.5,3.1,1.4c1.3-0.1,2.6-0.3,4-0.5c0.5-3.4,0.9-6.7,1.3-10
		c3.2-0.4,6.3-0.9,9.7-1.3c-0.9,7.9-2,15.6-3.1,23.4c-1.2,0.2-2.4,0.4-3.5,0.5c-3.3,0.4-6.6,0.9-9.8,1.3c-3.6,0.5-6.6-0.6-9-3.3
		c-2.3-2.6-3.5-5.7-3.8-9.1c-1-10.1,2.1-18.7,9.2-26c2.9-3,6.4-4.8,10.6-5.2C110.5,413.7,114.4,413,118.6,412.5z"/>
	<path d="M136.4,439.6c0.5-3.4,0.9-6.7,1.3-10c3.2-0.4,6.4-0.9,9.7-1.3c-1,7.9-2.1,15.5-3.1,23.3c-0.4,0.1-0.7,0.3-1.1,0.3
		c-4.3,0.6-8.5,1.2-12.8,1.7c-3.3,0.4-6-0.7-8.3-3.1c-2.2-2.3-3.5-5.2-3.9-8.3c-1.4-10.8,1.9-20,9.7-27.7c2.7-2.7,6-4.1,9.9-4.5
		c3.8-0.4,7.6-1,11.4-1.5c0.2,0,0.4,0,0.8,0c-0.6,4.4-1.1,8.8-1.6,13.3c-1.9,0.3-3.7,0.5-5.6,0.8c-2.4,0.3-4.9,0.6-7.3,0.9
		c-1.7,0.2-3.1,0.9-4.2,2.1c-2.7,2.9-3.9,6.2-3.3,10.1c0.1,1,0.6,2,1.1,2.9c0.8,1.3,2,1.8,3.5,1.6
		C133.8,439.9,135,439.7,136.4,439.6z"/>
	<path d="M309,417c-0.6,4.5-1.1,8.8-1.6,13.2c-1.5,0.2-2.9,0.4-4.4,0.6c-2.9,0.4-5.9,0.7-8.8,1.2c-0.9,0.2-1.9,0.5-2.7,1.1
		c-3.5,2.4-5.5,7.8-4.4,11.8c0.3,0.9,0.8,1.8,1.4,2.6c0.7,0.9,1.8,1.3,3,1.2c1.3-0.1,2.5-0.3,3.9-0.5c0.2-1.7,0.5-3.3,0.7-4.9
		c0.2-1.6,0.4-3.3,0.7-5.1c3.2-0.4,6.3-0.9,9.7-1.3c-0.9,7.9-2,15.5-3,23.3c-0.4,0.1-0.7,0.2-1,0.2c-3.9,0.5-7.9,1.1-11.8,1.6
		c-5.1,0.7-9-1.3-11.5-5.9c-1.8-3.3-2.3-6.9-2.2-10.6c0.3-7.8,2.9-14.7,8.1-20.5c1.4-1.6,2.9-3,4.7-4.1c1.9-1.2,3.9-2,6.2-2.3
		c3.9-0.5,7.8-1.1,11.7-1.6C307.9,417,308.3,417,309,417z"/>
	<path d="M326.9,443.9c0.5-3.4,0.9-6.6,1.3-10c3.2-0.4,6.3-0.9,9.4-1.3c0.2,1-2.3,21.1-2.9,23.4c-2.2,0.3-4.5,0.6-6.8,0.9
		c-1.9,0.3-3.7,0.5-5.6,0.8c-5.2,0.8-9.2-1.2-11.7-5.8c-1.8-3.3-2.4-7-2.2-10.7c0.3-7.6,2.8-14.4,7.9-20.2c1.3-1.5,2.8-2.8,4.4-4
		c2-1.5,4.3-2.3,6.8-2.7c3.9-0.5,7.8-1.1,11.7-1.6c0.4,0,0.7,0,1.3-0.1c-0.4,4.5-1.1,8.8-1.6,13.3c-2.4,0.3-4.7,0.6-7,0.9
		c-2.2,0.3-4.3,0.5-6.5,0.9c-0.9,0.2-1.8,0.6-2.6,1.1c-3.4,2.4-5.4,7.7-4.3,11.7c0.2,0.9,0.8,1.8,1.4,2.6c0.6,0.9,1.6,1.3,2.7,1.2
		C324,444.4,325.4,444.1,326.9,443.9z"/>
	<path d="M272,464.4c-3.4,0.5-6.7,0.9-10.1,1.4c-0.2-1.7-0.4-3.3-0.6-5c-0.2,0-0.4-0.1-0.6-0.1c-3.2,0.4-6.4,0.9-9.5,1.3
		c-0.7,0.1-1.1,0.4-1.3,1.1c-0.4,1.3-0.9,2.5-1.3,3.7c-0.2,0.5-0.3,0.8-0.9,0.9c-3,0.4-6,0.8-9,1.2c-0.1,0-0.3,0-0.6-0.1
		c5.4-14.9,10.8-29.7,16.2-44.6c4.2-0.6,8.3-1.1,12.6-1.7C268.7,436.5,270.4,450.4,272,464.4z M260,451.6c0-2-1.2-10.4-1.7-11.5
		c-1.5,4.1-3,8.1-4.5,12.3C256.1,452.1,258,451.9,260,451.6z"/>
	<path d="M47.7,464.6c0.3-0.8,0.4-1.3,0.6-1.7c5.1-13.9,10.1-27.9,15.2-41.8c0.3-0.9,0.8-1.4,1.8-1.5c3.4-0.4,6.8-0.9,10.3-1.4
		c0.3,0,0.6,0,1-0.1c1.7,13.9,3.3,27.8,5,41.9c-3.4,0.5-6.7,0.9-10.1,1.4c-0.2-1.7-0.4-3.3-0.6-5.1c-1.3,0.1-2.5,0.3-3.8,0.4
		c-2.1,0.3-4.1,0.6-6.2,0.8c-0.7,0.1-1.2,0.4-1.4,1.1c-0.5,1.5-1,2.9-1.6,4.5C54.6,463.6,51.3,464.1,47.7,464.6z M68.2,435.9
		c-0.1,0-0.2,0-0.3,0c-1.5,4-2.9,7.9-4.5,12.2c2.3-0.3,4.2-0.6,6.3-0.8C69.2,443.3,68.7,439.6,68.2,435.9z"/>
</g>
<path id="dagger-left" d="M119.1,61c-3.2-0.5-3.8-5.2-0.5-6.1c-2.3-3.9-2.1-9-2.2-13.4c-0.1-8.6-1.4-21.4,8.4-24.9
	c7.5-2.7,17.2-1.4,25.1-1.6c4.3-0.1,8.9,0.3,12.8,2.3c5.1,2.7,5.1,7.6,5.6,12.8c1.9,21.3,1,43.1,0.7,64.4
	c-0.3,20.6-0.3,41.2-1.5,61.8c-0.9,15.6-5.1,41.1,16.5,43.1c3.3,0.3-2.7,6.4-3.8,7c-3,1.5-7,2.2-8.9,5.3c-2.9,4.6,1.2,3.3,2.6,6.2
	c1.6,3.3,0.5,10.6,0.7,14.3c2.5,41.1,5.5,83.2-17.3,119.7c-5.1,8.2-11.2,15.9-18,22.7c-4.6-11.7-6.6-24.9-8.9-37.3
	c-2.5-13.8-4.2-27.6-5.5-41.5c-2.6-28.2-2.3-56.5-2.1-84.8c0-2.7,0.7-6.2-0.9-8.6c-1.6-2.6-2.5-5.5-2.9-8.5
	c-0.5-3.4-0.4-6.8-0.1-10.1c0.2-1.8,1.7-6.4,1.1-8.2c-0.9-2.5-1.8-1.1-1.9-4.9c-0.1-3.4-0.2-6.9-0.3-10.3
	c-0.2-7.5-0.4-15.1-0.5-22.6c-0.3-14.3-0.5-28.6-0.8-42.8c-0.1-6.7-0.2-13.4-0.4-20.1c-0.1-2.9-0.1-5.7-0.2-8.6
	c-0.2-1.2-0.1-2.4,0.3-3.5C116.8,61.8,118.8,61.7,119.1,61C117.3,60.7,119.1,61.1,119.1,61z"/>
<path id="dagger-right_2_" d="M233.9,61c-3.2-0.5-3.8-5.2-0.5-6.1c-2.3-3.9-2.1-9-2.2-13.4c-0.1-8.6-1.4-21.4,8.4-24.9
	c7.5-2.7,17.2-1.4,25.1-1.6c4.3-0.1,8.9,0.3,12.8,2.3c5.1,2.7,5.1,7.6,5.6,12.8c1.9,21.3,1,43.1,0.7,64.4
	c-0.3,20.6-0.3,41.2-1.5,61.8c-0.9,15.6-5.1,41.1,16.5,43.1c3.3,0.3-2.7,6.4-3.8,7c-3,1.5-7,2.2-8.9,5.3c-2.9,4.6,1.2,3.3,2.6,6.2
	c1.6,3.3,0.5,10.6,0.7,14.3c2.5,41.1,5.5,83.2-17.3,119.7c-5.1,8.2-11.2,15.9-18,22.7c-4.6-11.7-6.6-24.9-8.9-37.3
	c-2.5-13.8-4.2-27.6-5.5-41.5c-2.6-28.2-2.3-56.5-2.1-84.8c0-2.7,0.7-6.2-0.9-8.6c-1.6-2.6-2.5-5.5-2.9-8.5
	c-0.5-3.4-0.4-6.8-0.1-10.1c0.2-1.8,1.7-6.4,1.1-8.2c-0.9-2.5-1.8-1.1-1.9-4.9c-0.1-3.4-0.2-6.9-0.3-10.3
	c-0.2-7.5-0.4-15.1-0.5-22.6c-0.3-14.3-0.5-28.6-0.8-42.8c-0.1-6.7-0.2-13.4-0.4-20.1c-0.1-2.9-0.1-5.7-0.2-8.6
	c-0.2-1.2-0.1-2.4,0.3-3.5C231.6,61.8,233.6,61.7,233.9,61C232.1,60.7,233.9,61.1,233.9,61z"/>
<g>
</g>
<g>
</g>
<g>
</g>
<g>
</g>
<g>
</g>
<g>
</g>
<g>
</g>
<g>
</g>
<g>
</g>
<g>
</g>
<g>
</g>
<g>
</g>
<g>
</g>
<g>
</g>
<g>
</g>
</svg>
