<?xml version="1.0" encoding="utf-8"?>
<!-- Generator: Adobe Illustrator 18.0.0, SVG Export Plug-In . SVG Version: 6.00 Build 0)  -->
<!DOCTYPE svg PUBLIC "-//W3C//DTD SVG 1.1//EN" "http://www.w3.org/Graphics/SVG/1.1/DTD/svg11.dtd">
<svg version="1.1" id="Layer_1" xmlns="http://www.w3.org/2000/svg" xmlns:xlink="http://www.w3.org/1999/xlink" x="0px" y="0px"
	 viewBox="0 0 162.4 161.9" style="enable-background:new 0 0 162.4 161.9;" xml:space="preserve">
<style type="text/css">
	.st0{fill:#FFFFFF;}
</style>
<g>
	<g>
		<path class="st0" d="M62.4,17.3l-6.9,32.8h0.9c11.8,0,21.2-12.8,21.2-23.9c0-8.4-5.5-15.9-19.5-15.9c-17.3,0-36.9,11.5-36.9,35.9
			c0,7.5,1.9,8.7,2.1,10c-9.7,0-15.8-3.7-15.8-13.6c0-20.4,25.7-39.1,53.6-39.1c21.7,0,31.4,11.4,31.4,23.5c0,8.7-5.2,18-14.8,23.5
			c12.5,2.5,17.4,12.7,17.4,23.8c0,14.2-7.7,42.5-32.3,42.5c-6.3,0-14.6-1.9-14.6-10.9c0-2.4,0.6-5.2,1.9-8.6
			c3.7,3.8,6.5,5.3,9.9,5.3c10.8,0,14.6-15.3,14.6-26.6c0-10.3-3.2-18.7-14-18.7c-1.2,0-4.1,0.1-6.8,0.4l-12.1,56.5H20.5l20.1-93.8
			L62.4,17.3z"/>
	</g>
	<g>
		<path class="st0" d="M155.4,15.1l-22.1,104.8c-4.7,22.6-14.6,36.4-38.8,36.4c-14,0-21.8-8.6-21.8-20.8c0-10,6.3-19.8,18-19.8
			c5.9,0,14.5,0.4,14.5,9.9c0,1.6-0.3,3.7-0.9,5.9c-3.7-3.1-5.9-3.8-8.9-3.8c-6.8,0-10.3,5.5-10.3,10.9c0,7.7,5.8,10.3,10,10.3
			c6.6,0,10.6-3,14-18.1l23.2-105.3c-12.8,5.3-20.8,16.5-20.8,32.3c0,7.5,1.9,8.7,2.1,10c-10.2,0-15.8-3.7-15.8-14.3
			c0-19.6,27.1-38.4,51.8-38.4H155.4z"/>
	</g>
</g>
<g>
</g>
<g>
</g>
<g>
</g>
<g>
</g>
<g>
</g>
<g>
</g>
<g>
</g>
<g>
</g>
<g>
</g>
<g>
</g>
<g>
</g>
<g>
</g>
<g>
</g>
<g>
</g>
<g>
</g>
</svg>
