<svg xmlns="http://www.w3.org/2000/svg" viewBox="0 0 162.4 161.9" enable-background="new 0 0 162.4 161.9"><style type="text/css">.st0{fill:#FFFFFF;}</style><path class="st0" d="M62.4 17.3l-6.9 32.8h.9c11.8 0 21.2-12.8 21.2-23.9 0-8.4-5.5-15.9-19.5-15.9-17.3 0-36.9 11.5-36.9 35.9 0 7.5 1.9 8.7 2.1 10-9.7 0-15.8-3.7-15.8-13.6 0-20.4 25.7-39.1 53.6-39.1 21.7 0 31.4 11.4 31.4 23.5 0 8.7-5.2 18-14.8 23.5 12.5 2.5 17.4 12.7 17.4 23.8 0 14.2-7.7 42.5-32.3 42.5-6.3 0-14.6-1.9-14.6-10.9 0-2.4.6-5.2 1.9-8.6 3.7 3.8 6.5 5.3 9.9 5.3 10.8 0 14.6-15.3 14.6-26.6 0-10.3-3.2-18.7-14-18.7-1.2 0-4.1.1-6.8.4l-12.1 56.5h-21.2l20.1-93.8 21.8-3.1zM155.4 15.1l-22.1 104.8c-4.7 22.6-14.6 36.4-38.8 36.4-14 0-21.8-8.6-21.8-20.8 0-10 6.3-19.8 18-19.8 5.9 0 14.5.4 14.5 9.9 0 1.6-.3 3.7-.9 5.9-3.7-3.1-5.9-3.8-8.9-3.8-6.8 0-10.3 5.5-10.3 10.9 0 7.7 5.8 10.3 10 10.3 6.6 0 10.6-3 14-18.1l23.2-105.3c-12.8 5.3-20.8 16.5-20.8 32.3 0 7.5 1.9 8.7 2.1 10-10.2 0-15.8-3.7-15.8-14.3 0-19.6 27.1-38.4 51.8-38.4h5.8z"/></svg>