<svg xmlns="http://www.w3.org/2000/svg" viewBox="0 0 695.2 144.2" enable-background="new 0 0 695.2 144.2"><style type="text/css">.st0{fill:#FFFFFF;}</style><path class="st0" d="M73.4 48.9c9.1-5.2 14-14 14-22.3 0-11.5-9.2-22.3-29.8-22.3-26.5.1-50.9 17.8-50.9 37.2 0 9.4 5.7 12.9 15 12.9-.1-1.3-2-2.4-2-9.5 0-23.1 18.6-34 35-34 13.3 0 18.5 7.3 18.5 15.3 0 10.5-9 22.9-20.2 22.9h-.8l6.6-31.3-20.7 2.5-19.1 88.7h20.2l11.5-53.4c2.5-.3 5.3-.3 6.4-.3 10.2 0 13.3 8 13.3 17.8 0 10.6-3.6 25.2-13.9 25.2-3.2 0-5.9-1.4-9.4-5-1.3 3.2-1.8 5.9-1.8 8.1 0 8.5 7.8 10.4 13.9 10.4 23.4 0 30.7-26.9 30.7-40.3 0-10.6-4.6-20.2-16.5-22.6zM137.6 62.6c0-4.2-2.6-8.2-7.6-8.2-5.3 0-9.5 3.3-13.3 6.6l1.4-7h-15.8l-11.7 55h15.8l8.8-41.6c2.8-2.5 4.7-4.1 8-4.1s.2 7.3 6.4 7.3c5.4 0 8-4.1 8-8zM391.4 94.7c0-6.2 5.3-19.5 5.3-28.4 0-8.8-5.2-12.4-12.2-12.4-3.4 0-8.2.7-12.9 6l1.2-5.9h-15.8l-7.5 35.6c-1.7 5.5-4.6 10.4-8.9 10.4-3.1 0-4.5-1.6-4.5-4.7 0-1 .1-2.3.4-3.7l7.9-37.6h-15.8l-1.6 6.2v-.8c0-3.2-2.4-5.6-8.7-5.6-19.1 0-28.2 23.6-28.2 38.5l.1 1c-1.7 3.6-4.2 6-7.5 6-3.1 0-4.5-1-4.5-4.1 0-1 .1-2.1.4-3.5l12.7-59.4-16.1 2.2-5.2 25.4v-.4c0-3.2-2.8-5.6-9.1-5.6-19.1 0-28.4 23.6-28.4 38.5v.5c-1.9 4-4 6.5-7.8 6.5-3.3 0-4.4-1.9-4.4-4.6 0-6.2 5.3-19.5 5.3-28.4 0-8.8-5.2-12.4-12.2-12.4-3.4 0-8.3.7-12.9 6l1.2-5.9h-15.8l-7.5 35.5c-5.5 6.3-10.8 11.2-19.5 11.2-5.3 0-7.9-1.7-7.9-9.2 0-1.3.1-2.8.2-4.4 13.2-.8 25.3-10.5 25.3-23.2 0-5.5-2.3-10.6-12.1-10.6-22.5 0-29.7 26.5-29.7 39.2 0 12.4 6.8 17.5 17.2 17.5 11 0 19-5.9 24.9-13.1l-2.6 12h15.8l7.5-35.1c1.6-5.5 4.6-10 8.6-10 2.6 0 4 2 4 5.7 0 7-5 20.6-5 28.1 0 6.3 3.4 12.4 13 12.4 4.4 0 10.3-1.3 15.6-9.7 2.3 7 7.8 9.7 13.5 9.7 7.8 0 13-5.1 16.3-10.1.9 6.2 4.8 9.5 10.8 9.5 4.5 0 11.3-1 17.1-9.4 2.2 7.3 7.8 10.1 13.6 10.1 7.8 0 13-5.1 16.4-10.1.7 6.6 4.6 10.1 10.8 10.1 3.9 0 9.5-1.2 14.6-6.9l-1.3 5.9h15.8l7.5-35.1c1.7-5.5 4.6-10 8.6-10 2.6 0 4 2 4 5.7 0 7-5 20.6-5 28.1 0 6.3 2.6 12.4 11.1 12.4 5.8 0 11.1-3.4 12.1-11.3-.7.4-1.8.7-3.6.7-3.5-.3-4.6-2.2-4.6-5zm-226.1-35.5c2.1 0 2.8 1.8 2.8 4.5 0 9.1-7.5 17.6-16 18.2 2.2-10.9 7.6-22.7 13.2-22.7zm97.7 30.5v.5c-1 6.1-5.8 9.1-8.9 9.1-2 0-5.4-.1-5.4-8.6 0-10.3 6.1-30.1 15.4-30.1 3.3 0 4.2 2.5 4.4 3.9l-5.5 25.2zm58.2 0c-1.3 6.4-5.9 9.7-9.1 9.7-2 0-5.5-.1-5.5-8.6 0-10.3 6-30.1 15.4-30.1 3.5 0 4.5 2.9 4.5 4.2l-5.3 24.8zM474.5 6c-23.4 0-49.1 18-49.1 36.6 0 10.1 5.3 13.7 15 13.7-.1-1.3-2-2.3-2-9.5 0-15 7.6-25.6 19.7-30.6l-22 100c-3.2 14.4-7 17.2-13.3 17.2-4.1 0-9.5-2.5-9.5-9.8 0-5.2 3.4-10.4 9.8-10.4 2.8 0 4.9.7 8.4 3.6.6-2.1.8-4.1.8-5.6 0-9-8.1-9.4-13.7-9.4-11.1 0-17.1 9.2-17.1 18.8 0 11.6 7.4 19.7 20.7 19.7 23 0 32.3-13.4 36.8-34.8l21-99.6h-5.5zM689.2 53l-16.3 2.2c-3.4 10.8-7.4 21.7-13.5 32.6-2.4 1.2-4.7 3.8-5.5 7.4-4.5 4.5-9.3 7.6-16.3 7.6-5.3 0-7.9-1.8-7.9-9.2 0-1.3.1-2.9.2-4.4 13.2-.8 25.3-10.6 25.3-23.2 0-5.5-2.3-10.6-12.1-10.6-22.6 0-29.7 26.5-29.7 39.2v.3c-1.9 4-3.9 6.5-7.8 6.5-3.3 0-4.4-1.9-4.4-4.6 0-6.2 5.3-19.5 5.3-28.4 0-8.8-5.2-12.4-12.2-12.4-4.1 0-10 1.2-15.3 9.4-1.2-6.8-5.5-9.5-11.3-9.5-3.9 0-8.8.8-13.4 6.1l1.2-5.9h-15.8l-7.5 35.6c-1.7 5.5-4.6 10.4-8.9 10.4-3.1 0-4.5-1.6-4.5-4.7 0-1 .1-2.3.4-3.7l7.9-37.6h-15.8l-1.2 6.2v-.8c0-3.2-2.6-5.6-8.9-5.6-19.1 0-28.3 23.6-28.3 38.5 0 13.1 7.2 17.7 14.6 17.7 7.8 0 13-5.1 16.4-10.1.7 6.6 4.6 10.1 10.8 10.1 3.9 0 9.5-1.2 14.6-7l-1.3 5.9h15.8l7.5-35.1c1.7-5.5 4.6-10.1 8.9-10.1 2.4 0 3.3 2.5 3.3 4.9 0 1-.1 1.7-.3 2.6l-8 37.8h15.8l7.5-35.1c1.6-5.5 4.6-10 8.6-10 2.6 0 4 2 4 5.7 0 7-5 20.6-5 28.1 0 6.3 3.4 12.4 13 12.4 4.4 0 10.3-1.3 15.6-9.7 2.4 6.8 8.2 9.7 16 9.7 10 0 17.6-4.8 23.3-11.1 1.3 5.7 6.2 11.1 15.7 11.1 9 0 22-4.7 22-19-.1-7.4-1.2-11.7-2.5-40.2zm-45.2 8.2c2.1 0 2.8 1.8 2.8 4.5 0 9.1-7.5 17.6-16 18.2 2.2-10.9 7.6-22.7 13.2-22.7zm-140.3 30.5c-1.3 6.4-5.9 9.7-9.1 9.7-2 0-5.5-.1-5.5-8.6 0-10.3 6-30.1 15.4-30.1 3.5 0 4.5 2.9 4.5 4.2l-5.3 24.8zm162.4 11.7c-4.8 0-6.7-2.5-6.7-7.7.6 1.1 1.9 1.4 3 1.4 2.9 0 4.8-2.8 4.8-5.4 0-1.9-1.1-3.2-2.5-3.9 3.6-7 6.7-13.6 8.9-20.8 1.1 16.9 2.1 20.4 2.1 26.1 0 7.7-4.8 10.3-9.6 10.3z"/></svg>