<?xml version="1.0" encoding="iso-8859-1"?>
<!-- Generator: Adobe Illustrator 18.0.0, SVG Export Plug-In . SVG Version: 6.00 Build 0)  -->
<!DOCTYPE svg PUBLIC "-//W3C//DTD SVG 1.1//EN" "http://www.w3.org/Graphics/SVG/1.1/DTD/svg11.dtd">
<svg version="1.1" id="Layer_1" xmlns="http://www.w3.org/2000/svg" xmlns:xlink="http://www.w3.org/1999/xlink" x="0px" y="0px"
	 viewBox="0 10.7 1710.1 339.5" style="enable-background:new 0 10.7 1710.1 339.5;" xml:space="preserve">
<style type="text/css">
	.st0{fill:#FFFFFF;}
</style>
<path class="st0" d="M166.5,122.1c22.7-13,35-35,35-55.7c0-28.7-23-55.7-74.4-55.7C60.9,11,0,55.2,0,103.6
	c0,23.5,14.2,32.2,37.4,32.2c-0.2-3.2-5-6-5-23.7c0-57.7,46.4-84.9,87.4-84.9c33.2,0,46.2,18.2,46.2,38.2
	c0,26.2-22.5,57.2-50.4,57.2h-2l16.5-78.1l-51.7,6.2L30.7,272.1h50.4l28.7-133.3c6.2-0.7,13.2-0.7,16-0.7c25.5,0,33.2,20,33.2,44.4
	c0,26.5-9,62.9-34.7,62.9c-8,0-14.7-3.5-23.5-12.5c-3.2,8-4.5,14.7-4.5,20.2c0,21.2,19.5,26,34.7,26c58.4,0,76.6-67.2,76.6-100.6
	C207.7,152,196.2,128.1,166.5,122.1L166.5,122.1z M326.8,156.3c0-10.5-6.5-20.5-19-20.5c-13.2,0-23.7,8.2-33.2,16.5l3.5-17.5h-39.4
	l-29.2,137.3h39.4l22-103.9c7-6.2,11.7-10.2,20-10.2s0.5,18.2,16,18.2C320.3,176.3,326.8,166,326.8,156.3L326.8,156.3z M960.4,236.4
	c0-15.5,13.2-48.7,13.2-70.9c0-22-13-31-30.5-31c-8.5,0-20.5,1.7-32.2,15l3-14.7h-39.4l-18.7,88.9c-4.2,13.7-11.5,26-22.2,26
	c-7.7,0-11.2-4-11.2-11.7c0-2.5,0.2-5.7,1-9.2l19.7-93.9h-39.4l-4,15.5v-2c0-8-6-14-21.7-14c-47.7,0-70.4,58.9-70.4,96.1l0.2,2.5
	c-4.2,9-10.5,15-18.7,15c-7.7,0-11.2-2.5-11.2-10.2c0-2.5,0.2-5.2,1-8.7l31.7-148.3l-40.2,5.5l-13,63.4v-1c0-8-7-14-22.7-14
	c-47.7,0-70.9,58.9-70.9,96.1v1.2c-4.7,10-10,16.2-19.5,16.2c-8.2,0-11-4.7-11-11.5c0-15.5,13.2-48.7,13.2-70.9c0-22-13-31-30.5-31
	c-8.5,0-20.7,1.7-32.2,15l3-14.7h-39.4l-18.7,88.6c-13.7,15.7-27,28-48.7,28c-13.2,0-19.7-4.2-19.7-23c0-3.2,0.2-7,0.5-11
	c33-2,63.2-26.2,63.2-57.9c0-13.7-5.7-26.5-30.2-26.5c-56.2,0-74.1,66.2-74.1,97.9c0,31,17,43.7,42.9,43.7
	c27.5,0,47.4-14.7,62.2-32.7l-6.5,30h39.4l18.7-87.6c4-13.7,11.5-25,21.5-25c6.5,0,10,5,10,14.2c0,17.5-12.5,51.4-12.5,70.2
	c0,15.7,8.5,31,32.5,31c11,0,25.7-3.2,38.9-24.2c5.7,17.5,19.5,24.2,33.7,24.2c19.5,0,32.5-12.7,40.7-25.2c2.2,15.5,12,23.7,27,23.7
	c11.2,0,28.2-2.5,42.7-23.5c5.5,18.2,19.5,25.2,34,25.2c19.5,0,32.5-12.7,40.9-25.2c1.7,16.5,11.5,25.2,27,25.2
	c9.7,0,23.7-3,36.4-17.2l-3.2,14.7h39.4L904,185c4.2-13.7,11.5-25,21.5-25c6.5,0,10,5,10,14.2c0,17.5-12.5,51.4-12.5,70.2
	c0,15.7,6.5,31,27.7,31c14.5,0,27.7-8.5,30.2-28.2c-1.7,1-4.5,1.7-9,1.7C963.2,248.2,960.4,243.4,960.4,236.4L960.4,236.4z
	 M396,147.8c5.2,0,7,4.5,7,11.2c0,22.7-18.7,43.9-39.9,45.4C368.5,177.3,382,147.8,396,147.8z M639.9,223.9v1.2
	c-2.5,15.2-14.5,22.7-22.2,22.7c-5,0-13.5-0.2-13.5-21.5c0-25.7,15.2-75.1,38.4-75.1c8.2,0,10.5,6.2,11,9.7L639.9,223.9z
	 M785.2,223.9c-3.2,16-14.7,24.2-22.7,24.2c-5,0-13.7-0.2-13.7-21.5c0-25.7,15-75.1,38.4-75.1c8.7,0,11.2,7.2,11.2,10.5L785.2,223.9
	z M1167.9,15c-58.4,0-122.6,44.9-122.6,91.4c0,25.2,13.2,34.2,37.4,34.2c-0.2-3.2-5-5.7-5-23.7c0-37.4,19-63.9,49.2-76.4L1072,290.1
	c-8,36-17.5,42.9-33.2,42.9c-10.2,0-23.7-6.2-23.7-24.5c0-13,8.5-26,24.5-26c7,0,12.2,1.7,21,9c1.5-5.2,2-10.2,2-14
	c0-22.5-20.2-23.5-34.2-23.5c-27.7,0-42.7,23-42.7,46.9c0,29,18.5,49.2,51.7,49.2c57.4,0,80.6-33.5,91.9-86.9l52.4-248.7h-13.7V15z
	 M1703.9,132.3l-40.7,5.5c-8.5,27-18.5,54.2-33.7,81.4c-6,3-11.7,9.5-13.7,18.5c-11.2,11.2-23.2,19-40.7,19
	c-13.2,0-19.7-4.5-19.7-23c0-3.2,0.2-7.2,0.5-11c33-2,63.2-26.5,63.2-57.9c0-13.7-5.7-26.5-30.2-26.5c-56.4,0-74.1,66.2-74.1,97.9
	v0.7c-4.7,10-9.7,16.2-19.5,16.2c-8.2,0-11-4.7-11-11.5c0-15.5,13.2-48.7,13.2-70.9c0-22-13-31-30.5-31c-10.2,0-25,3-38.2,23.5
	c-3-17-13.7-23.7-28.2-23.7c-9.7,0-22,2-33.5,15.2l3-14.7h-39.4l-18.7,88.9c-4.2,13.7-11.5,26-22.2,26c-7.7,0-11.2-4-11.2-11.7
	c0-2.5,0.2-5.7,1-9.2l19.7-93.9h-39.4l-3,15.5v-2c0-8-6.5-14-22.2-14c-47.7,0-70.7,58.9-70.7,96.1c0,32.7,18,44.2,36.4,44.2
	c19.5,0,32.5-12.7,40.9-25.2c1.7,16.5,11.5,25.2,27,25.2c9.7,0,23.7-3,36.4-17.5l-3.2,14.7h39.4l18.7-87.6
	c4.2-13.7,11.5-25.2,22.2-25.2c6,0,8.2,6.2,8.2,12.2c0,2.5-0.2,4.2-0.7,6.5l-20,94.4h39.4l18.7-87.6c4-13.7,11.5-25,21.5-25
	c6.5,0,10,5,10,14.2c0,17.5-12.5,51.4-12.5,70.2c0,15.7,8.5,31,32.5,31c11,0,25.7-3.2,38.9-24.2c6,17,20.5,24.2,39.9,24.2
	c25,0,43.9-12,58.2-27.7c3.2,14.2,15.5,27.7,39.2,27.7c22.5,0,54.9-11.7,54.9-47.4C1709.9,214.2,1707.1,203.5,1703.9,132.3
	L1703.9,132.3z M1591,152.8c5.2,0,7,4.5,7,11.2c0,22.7-18.7,43.9-39.9,45.4C1563.6,182.2,1577.1,152.8,1591,152.8L1591,152.8z
	 M1240.8,228.9c-3.2,16-14.7,24.2-22.7,24.2c-5,0-13.7-0.2-13.7-21.5c0-25.7,15-75.1,38.4-75.1c8.7,0,11.2,7.2,11.2,10.5
	L1240.8,228.9z M1646.2,258.1c-12,0-16.7-6.2-16.7-19.2c1.5,2.7,4.7,3.5,7.5,3.5c7.2,0,12-7,12-13.5c0-4.7-2.7-8-6.2-9.7
	c9-17.5,16.7-34,22.2-51.9c2.7,42.2,5.2,50.9,5.2,65.2C1670.2,251.7,1658.2,258.1,1646.2,258.1L1646.2,258.1z"/>
</svg>
