<?xml version="1.0" encoding="utf-8"?>
<!-- Generator: Adobe Illustrator 18.0.0, SVG Export Plug-In . SVG Version: 6.00 Build 0)  -->
<!DOCTYPE svg PUBLIC "-//W3C//DTD SVG 1.1//EN" "http://www.w3.org/Graphics/SVG/1.1/DTD/svg11.dtd">
<svg version="1.1" id="Layer_1" xmlns="http://www.w3.org/2000/svg" xmlns:xlink="http://www.w3.org/1999/xlink" x="0px" y="0px"
	 viewBox="84 -29.4 1101.7 846.3" enable-background="new 84 -29.4 1101.7 846.3" xml:space="preserve">
<g>
	<g>
		<path fill="#FFFFFF" d="M1037,753V34.4c0-20.2-16.4-36.6-36.6-36.6H935H334.7h-65.4c-20.2,0-36.6,16.4-36.6,36.6v653.2v65.6
			c0,20.2,16.4,36.6,36.6,36.6h406.1V471.7H570.6V362.2h104.8v-119C675.4,172,740,124,792.1,124h117.3v99.7h-54.3
			c-26.6,0-62.3,21.7-62.3,48.3v90.2h105.7v109.5H792.9v317.9h141.9h65.4C1020.6,789.6,1037,773.2,1037,753z"/>
	</g>
</g>
<path fill="#FFFDFD" d="M1739.8,1402c-30.8,13.7-63.8,23-98.6,27c35.3-21.3,62.7-54.8,75.4-94.9c-33.2,19.7-69.8,33.9-109,41.5
	c-31.3-33.3-76-54.1-125.2-54.1c-94.7,0-171.6,76.9-171.6,171.6c0,13.5,1.5,26.6,4.4,39.2c-142.7-7.1-268.9-75.4-353.6-179.3
	c-14.8,25.3-23.1,54.8-23.1,86.2c0,59.6,30.2,112,76.3,142.8c-28.1-0.9-54.5-8.6-77.8-21.5c0,0.7,0,1.5,0,2.2
	c0,83.1,59.2,152.5,137.6,168.2c-14.4,3.8-29.5,6-45.2,6c-11.1,0-21.9-1.1-32.2-3.1c21.9,68.1,85.3,117.7,160.3,119.2
	c-58.7,46.1-132.6,73.4-213,73.4c-13.8,0-27.5-0.7-41-2.4c76,48.6,166.2,77.1,262.9,77.1c315.6,0,488.1-261.4,488.1-488.1
	c0-7.5-0.2-14.8-0.5-22.2C1687.9,1466.7,1716.9,1436.4,1739.8,1402z"/>
<g>
	<g>
		<path fill="#D2E4EC" d="M16272.6,1149.5h-5775.8c-178,0-322.5-144.3-322.5-322.5V-265.3c0-178,144.3-322.5,322.5-322.5h5775.9
			c178,0,322.5,144.3,322.5,322.5V827C16595.1,1005,16450.8,1149.5,16272.6,1149.5z"/>
	</g>
	<g>
		<path fill="#FFFFFF" d="M11913.7-183.6h578.8v176h-364.8v216.8h340.9v174.7h-340.9v381.7h-214.1V-183.6L11913.7-183.6z"/>
		<path fill="#FFFFFF" d="M12654.7-171.1c69.1-11.3,170.4-19.7,285.9-19.7c140.8,0,239.4,21.1,307,74.7c57.8,45,88.7,112.6,88.7,200
			c0,119.7-85.8,202.8-167.6,232.5v4.2c66.1,26.8,102.8,88.7,126.8,176c29.5,108.4,57.8,232.3,76,268.9h-219.7
			c-14-28.2-38.1-104.2-64.9-221.2c-26.8-119.7-67.6-150.7-156.3-152.1h-63.4v373.3h-212.6L12654.7-171.1L12654.7-171.1z
			 M12867.3,237.4h84.5c106.9,0,170.4-53.6,170.4-136.6c0-86-59.2-131-157.8-131c-52.1,0-81.6,2.7-97.1,7.1V237.4L12867.3,237.4z"/>
		<path fill="#FFFFFF" d="M14054.7,364.2h-349.3v225.4h390.1v176h-604.2v-949.2h584.5v176h-370.4v197.1h349.3V364.2z"/>
		<path fill="#FFFFFF" d="M14807,364.2h-349.3v225.4h390.1v176h-604.2v-949.2h584.5v176h-370.4v197.1h349.3V364.2L14807,364.2z"/>
	</g>
</g>
<path fill="#FFFFFF" d="M993.4,1089.1H605.3v210.7H486.1v-210.2c-81.7,5.5-145.9,72-145.9,153v485.1c0,84.7,70.2,153.4,157.1,153.4
	h496.2c86.9,0,157.1-68.6,157.1-153.4v-485.1C1150.7,1157.8,1080.3,1089.1,993.4,1089.1z M770.9,1684.2
	c-103.5,0-187.5-83.9-187.5-187.5c0-103.7,84.2-187.5,187.5-187.5c103.7,0,187.9,83.9,187.9,187.5
	C958.8,1600.4,874.6,1684.2,770.9,1684.2z M1066.2,1326.9H919.3v-146.8h146.8V1326.9z"/>
</svg>
