<?xml version="1.0" encoding="iso-8859-1"?>
<!-- Generator: Adobe Illustrator 18.0.0, SVG Export Plug-In . SVG Version: 6.00 Build 0)  -->
<!DOCTYPE svg PUBLIC "-//W3C//DTD SVG 1.1//EN" "http://www.w3.org/Graphics/SVG/1.1/DTD/svg11.dtd">
<svg version="1.1" id="Layer_1" xmlns="http://www.w3.org/2000/svg" xmlns:xlink="http://www.w3.org/1999/xlink" x="0px" y="0px"
	 viewBox="356.9 175.3 292.2 243.5" style="enable-background:new 356.9 175.3 292.2 243.5;" xml:space="preserve">
<style type="text/css">
	.st0{fill:#FFFFFF;}
</style>
<g>
	<g id="open">
		<path class="st0" d="M369.8,175.3h266.5c7.1,0,12.8,5.7,12.8,12.8v23c0,7.1-5.7,12.8-12.8,12.8H369.8c-7.1,0-12.8-5.7-12.8-12.8
			v-23C356.9,181,362.7,175.3,369.8,175.3z"/>
	</g>
	<g id="open_1_">
		<path class="st0" d="M369.8,272.7h266.5c7.1,0,12.8,5.7,12.8,12.8v23c0,7.1-5.7,12.8-12.8,12.8H369.8c-7.1,0-12.8-5.7-12.8-12.8
			v-23C356.9,278.4,362.7,272.7,369.8,272.7z"/>
	</g>
	<g id="open_2_">
		<path class="st0" d="M369.8,370h266.5c7.1,0,12.8,5.7,12.8,12.8v23c0,7.1-5.7,12.8-12.8,12.8H369.8c-7.1,0-12.8-5.7-12.8-12.8v-23
			C356.9,375.8,362.7,370,369.8,370z"/>
	</g>
</g>
</svg>
