<?xml version="1.0" encoding="utf-8"?>
<!-- Generator: Adobe Illustrator 18.0.0, SVG Export Plug-In . SVG Version: 6.00 Build 0)  -->
<!DOCTYPE svg PUBLIC "-//W3C//DTD SVG 1.1//EN" "http://www.w3.org/Graphics/SVG/1.1/DTD/svg11.dtd">
<svg version="1.1" id="Layer_1" xmlns="http://www.w3.org/2000/svg" xmlns:xlink="http://www.w3.org/1999/xlink" x="0px" y="0px"
	 viewBox="148.2 0 1623.6 1080" enable-background="new 148.2 0 1623.6 1080" xml:space="preserve">
<g>
	<path d="M-1729.9-580.6c7.6,1.1,14.5,1.1,20.6-0.4c24.8-5.7,51.8-20.6,65.9-29c3.4-2.3,6.9-4.2,9.5-6.5c6.9-5,12.6-8.8,18.3-7.6
		c3.4,0.4,7.2,2.7,11.4,6.9c12.6,11,8.8,18.3,2.3,30.9c-1.5,3-3.4,6.5-5,10.7c-6.5,15.2-17.9,44.6-20.6,70.9
		c-3.4,31.6,24.8,69.3,49.9,91.8c22.9,21,43.8,32.4,63.6,35.4c35,5.3,60.6-17.1,83-37c1.9-1.9,4.2-3.8,6.1-6.1c3.8-3.8,7.6-8,11-9.5
		c5-1.9,9.5-1.5,13-1.5c3.8,0.4,6.5,0.4,8.8-1.9c16.8-19.4,18.3-21.3,17.9-24.4c-0.8-6.1-22.5-43.8-82.7-96.4
		c-16.8-14.5-28.2-22.1-40.8-30.1c-18.3-11.8-38.9-25.1-80.4-63.2c-41.5-38.1-56.8-57.5-70.1-75c-9.1-11.8-17.9-22.9-33.5-38.5
		c-54.5-52.6-93.3-72.4-101.7-73.9h-0.8c-3,0-4.6,1.9-21.7,21.3c-1.9,2.3-1.5,5.3-0.8,9.1c0.8,3.8,1.5,8.4,0,13.7
		c-0.8,3.4-4.6,8-8,12.6c-1.9,2.3-3.4,4.6-5,6.9c-26.3,39.6-55.6,84.6,14.9,150.5C-1785.1-604.6-1756.2-584.8-1729.9-580.6z
		 M-1576.8-590.9c5.3-6.9,13.3-9.1,23.2-7.6c24.4,3.8,58.7,32,85.7,56.4c31.6,29,49.9,46.5,52.2,65.1c4.2,31.6-27.8,56.4-43.4,68.2
		c-20.6,15.6-37.7,21.7-55.6,18.7c-15.2-2.3-31.6-11-51-27c-2.7-2.3-5.3-4.6-8-6.9l-1.5-1.5c-5-5-9.5-9.9-13.3-15.2l-0.8-1.1
		c-3.4-4.6-6.1-9.1-8.8-13.7c-1.1-1.9-1.9-3.8-2.7-6.1l0,0c-3.4-7.6-5.7-15.2-7.2-23.2C-1617.9-538.7-1581-585.9-1576.8-590.9z
		 M-1832.8-682.7v-0.4c-0.4-1.9-0.8-3.8-1.1-5.7l-0.4-1.9c0-1.5-0.4-3-0.4-4.6v-2.7v-3.8l0.4-3l0.4-3.8l0.4-2.3
		c0.4-1.5,0.4-3,0.8-4.6l0.4-0.8c2.3-8.4,6.1-17.1,11.4-26.7c9.9-17.1,30.1-52.6,61-51.8c18.3,0.4,36.2,16.4,68.6,46.1
		c29,27,62.1,61.7,64.8,86.5c0.4,4.6,0,8.4-1.5,11.8l0,0c-0.8,1.5-1.5,3-2.7,4.6l0,0l-1.5,2.3c-5,5.3-49.9,52.2-105.9,43.4
		c-22.1-3.4-43-15.2-62.5-35C-1818.3-651.4-1828.6-667-1832.8-682.7z"/>
	<path d="M-591.6-206.1c53.3,8.4,109.3-28.6,202.7-89.5l3.4-2.3l0.4-1.1l-1.1-1.1c-164.6-33.5-240-155.4-259.4-192l-0.8-0.8h-1.1
		c-21.7,15.2-45.7,25.5-67,34.7c-33.9,14.5-60.6,25.9-63.2,51c-2.7,25.5,20.6,62.9,74.7,120.4C-659.8-235.8-626.3-211.8-591.6-206.1
		z"/>
	<path d="M-592.8-427.8l0.8,0.4l0,0l0.8-0.4c86.1-126.5,140.2-188.6,213.3-201.5l0.8-0.8v-1.1c-2.3-3-3-6.1-3-8.8l-1.1-1.5
		c-22.1-8-43-13.7-62.1-16.8c-121.5-19-160,69.7-194.3,148.2l-4.2,9.5v1.1C-633.1-482.3-617.9-456-592.8-427.8z"/>
	<path d="M-337.5-605.7c-6.1-0.8-13.3-3.8-20.6-8.4c-3.8-2.3-7.6-5-11-8l-1.1-0.4c-65.9,9.1-116.2,56-215.6,201.5l0.4,1.5
		c36.2,38.9,98.7,89.5,193.5,110.5l0,0l0.8-0.4c88-91.4,81.1-226.7,55.2-295.2L-337.5-605.7z"/>
	<path d="M-325-607.6h-1.5l-1.5,0.8l-0.4,1.5c25.5,68.2,32.8,203.8-51.8,296.4v1.1l1.1,0.8c4.2,0.8,8.4,1.5,12.6,2.3
		c2.7,0.4,5,0.8,7.6,1.1c65.5,1.5,114.3-28.2,121.9-73.9C-224.4-517-238.1-528.8-325-607.6z"/>
	<path d="M-370.3-632l0.4,0.4c2.3,3,6.1,6.5,9.9,9.1c1.5,1.1,3,1.9,4.6,3c6.5,3.8,13,6.5,17.9,7.2c2.7,0.4,4.6,0.4,5.7-0.4l1.1-0.8
		c0.8-1.1,0-3.4-3-7.6c-3.4-4.2-8.8-8.8-14.9-12.6c-6.5-3.8-13-6.5-17.9-7.6c-4.2-0.8-6.5,0-6.9,1.1l0.4,2.7
		C-373-635.8-372.2-633.9-370.3-632z"/>
	<path d="M-1091-734.9l1.1,0.4v-0.4c34.3,5.7,67-15.2,73.5-51l-8.8-3.8c-5.7,32.4-33.9,52.6-66.7,47.2c-32.8-5-61-33.5-66.7-68.2
		l-7.6,1.1C-1159.6-771.4-1128.4-741-1091-734.9z"/>
	<path d="M-933-617.1l84.6,11.8l21.7-81.9c-21-11-98.7-54.9-105.1-58.3c-5.7,10.3-16.8,31.6-16.8,65.1
		C-948.2-650.7-937.9-626.7-933-617.1z"/>
	<path d="M-1235-725.3c0-33.5-11.4-59-16.8-70.5l-0.8,0.4c-25.5,6.5-86.1,21.7-104.4,25.5l21.7,88.8l84.6,14.5
		C-1246.1-674.7-1235-696-1235-725.3z"/>
	<path d="M-1245-662.5l0.8,309.3l307,47.6v-309.3c-7.6-9.1-16.8-34.7-16.8-66.7c0-34.7,11-56.4,16.8-67l-73.1-34.7
		c-7.2,38.5-40.4,61-80.8,54.9c-40.8-6.5-73.9-39.2-81.1-80l-72.8,11.8c8,17.5,16.8,41.1,16.8,72.4
		C-1228.6-692.6-1240-670.5-1245-662.5z"/>
	<path d="M-1143.6-787c11,20.6,30.5,34.7,51.4,38.1l0,0c21.3,3.4,40.4-5,51.8-21.7c-11,2.7-28.6,5-51.8,1.1
		C-1115-773.3-1132.6-781-1143.6-787z"/>
	<path d="M-1091.8-776.4c27.8,4.2,47.2,0,56.4-3c1.1-3,2.3-6.5,3-9.9c-3.8,1.5-7.6,2.3-11.8,3.4c-9.9,1.9-26.3,3.8-47.6,0.4
		c-30.1-4.6-51-16.8-59.4-22.1c0.8,3.8,1.9,7.6,3.4,11.4C-1139-791.2-1119.6-781-1091.8-776.4z"/>
	<path d="M-1467.4-154.3c27.8,27,52.2,31.6,71.6,35.4c12.6,2.3,22.9,5,30.9,11c-43.8-53-101.7-115.8-141-160.8
		c5.7,11.4,8.4,26.7,11,42.7C-1490.7-200.8-1485.7-171.8-1467.4-154.3z"/>
	<path d="M-1650.3-160c-9.9-1.5-18.7-2.3-22.5-1.9v66.7c3.8,1.5,11,3,18.7,4.2c27,4.2,43.8-6.9,43.8-29.7
		C-1610.3-141.3-1624.8-156.2-1650.3-160z"/>
	<path d="M-1405.7-115.4c-19.4-3.8-40.4-3.8-69.7-30.5c-12.6-11.4-20.6-27.4-22.1-43.4c-3.8-44.2-11.4-84.2-34.3-87.6v-1.1l-8-1.1
		l-142.5-22.1c-60.6-9.9-112.4,31.6-112.4,91.8V21.7c0,60.6,51.8,120.4,112.4,129.9l215.6,33.5c60.6,9.1,106.3-35.4,106.3-96V-71.2
		C-1364.2-102.9-1384.4-111.6-1405.7-115.4z M-1578.7-63.6c-17.5,13.3-45,16.8-75,12.2c-6.9-1.1-11.4-2.3-19-4.2V27l-49.5-7.6
		v-224.8c15.2-0.4,38.9,1.5,70.1,6.1c31.6,5,54.5,14.5,69.7,29c14.9,13.7,24.4,33.9,24.4,56S-1565-73.9-1578.7-63.6z M-1490.7,57.1
		c-21.3-3.4-40.4-11.4-53-19.8l9.1-34.7c9.5,7.2,29,16.4,43.8,19c15.2,2.3,21.7-1.5,21.7-9.9c0-8.8-5-13.3-23.6-22.9
		c-34.3-16.8-47.2-37.3-46.9-56.4c0-30.9,26.3-49.9,66.7-43.4c19,3,35.8,10.3,45.7,16.8l-8.8,33.9c-7.2-5.3-21.7-13-35.4-14.9
		c-12.6-1.9-19.4,1.9-19.4,9.9s6.5,13,26.3,23.2c31.2,15.6,43.8,33.5,44.2,57.5C-1419.8,45.7-1443.8,64.4-1490.7,57.1z"/>
	<path d="M-1358.9-116.6c-31.6-37-67.8-78.5-100.6-115.4c-5.3-5.7-10.3-11.4-15.2-17.1c-8.4-9.5-16-16.8-23.6-25.1
		c-8-8.4-23.6-10.3-30.1-11l-153.9-24c-66.7-10.7-123.8,31.6-123.8,98.3V19.8c0,66.7,57.1,128.8,123.8,139.4l215.6,33.5
		C-1400,203-1349,157.7-1349,91V-69.3l1.5-1.1c0-15.2-2.7-36.2-9.5-44.2L-1358.9-116.6z M-1352.8-70.1V90.3
		c0,64-49.9,108.6-113.9,98.3l-215.6-33.5c-64-9.9-116.2-70.1-116.2-134.1v-230.9c0-64,52.2-105.5,116.2-95.6l153.5,24h0.4
		c4.6,0.8,20.2,2.3,27,9.9c7.6,8,15.2,16.4,23.6,25.9c5,5.7,9.9,11,15.2,16.8c32.8,36.6,69,78.5,100.6,115.4l1.9,1.9
		c5.3,6.1,8.8,25.1,8.4,40.8L-1352.8-70.1z"/>
	<path d="M-1085.3-67.8h-0.8c-3.4,11-6.9,29.3-10.3,41.9l-13.3,45.7l49.9,7.6l-14.1-50.3C-1078.1-36.6-1081.9-56-1085.3-67.8z"/>
	<path d="M-868.6-32c-13.7-2.7-27.8-3.4-46.1-13.3c-4.2,1.9-9.1,3-14.1,2.3c-16-2.7-26.3-15.6-26.3-29.7c0-4.2,0.8-8.4,2.3-11.8
		c-3-6.9-6.5-14.5-6.9-21.7c-3.8-44.2-11.8-84.2-34.7-87.6v-1.1l-8-1.1l-142.5-22.1c-61-9.5-112.8,32-112.8,92.6v230.9
		c0,60.6,51.8,120.4,112.4,129.9l215.6,33.5c60.6,9.5,106.3-35,106.3-95.6V12.6C-827-19-847.2-27.8-868.6-32z M-1035,126.5
		l-17.5-59.8l-64.8-9.9l-16,54.5l-52.6-8.4l68.6-214.1l67,10.3l70.5,235.8L-1035,126.5z M-903.2,147l-53.3-8.4V-25.1l53.3,8.4V147z"
		/>
	<path d="M-821.7-33.1c-31.6-37-67.8-78.5-100.6-115.4c-5.3-5.7-10.3-11.4-15.2-17.1c-8.4-9.5-16-16.8-23.6-25.1
		c-8-8.4-23.6-10.3-30.1-11l-153.9-24c-66.7-10.3-123.8,32-123.8,98.3v230.9c0,66.7,57.1,128.8,123.8,139.4l215.6,33.5
		c66.7,10.3,117.7-35,117.7-101.7V14.1l1.5-1.1c0-15.2-2.7-36.2-9.5-44.2L-821.7-33.1z M-815.6,13.7v160.4
		c0,64-49.9,108.6-113.9,98.3l-215.6-33.5c-64-9.9-116.2-70.1-116.2-134.1v-230.9c0-64,52.2-105.5,116.2-95.6l153.5,24h0.4
		c4.6,0.8,20.2,2.3,27,9.9c7.6,8,15.2,16.4,23.6,25.9c5,5.7,9.9,11,15.2,16.8c32.8,36.6,69,78.5,100.6,115.4l1.9,1.9
		c5.3,6.1,8.8,25.1,8.4,40.8L-815.6,13.7z"/>
	<path d="M-930.3-70.9c27.8,27,52.2,31.6,71.6,35.4c12.6,2.3,22.9,5,30.9,11c-43.8-53-101.7-115.8-141-160.8
		c5.7,11.4,8.4,26.7,11,42.7C-953.5-117.3-948.6-88.4-930.3-70.9z"/>
	<path d="M-335.6,51c-13-2.3-26.7-3.4-41.9-11.4v138.3c0,18.3,1.1,39.6,1.9,51.4l-45.3-6.9l-1.9-23.2h-1.1
		c-9.9,13.7-30.1,21.3-51.4,17.9c-38.9-6.1-70.1-45-70.1-95.6c-0.4-55.2,34.3-81.1,73.5-75c18.7,3,33.1,11.8,41.1,23.2v-89.1
		l6.1,1.1c-0.4,0-1.9-3-1.9-4.6c-3.8-44.2-11.8-84.2-34.7-87.6v-1.1l-8-1.1l-142.5-22.1c-60.6-9.9-112.4,31.6-112.4,92.2v230.9
		c0,60.6,51.8,120.4,112.4,129.9l215.6,33.5c60.6,9.5,106.3-35.4,106.3-96v-160C-293.7,64-313.9,55.2-335.6,51z M-579.4,197.3
		l-49.5-7.6V-35l49.5,7.6V197.3z"/>
	<path d="M-428.6,72.4c-0.8-1.1-1.5-1.9-2.3-3V72L-428.6,72.4z"/>
	<path d="M-430.1,114.7c-3-13.7-12.6-26.7-28.6-29.3c-23.6-3.8-35,15.2-35,41.1c0,27.8,13.7,47.2,34.7,50.7
		c14.9,2.3,25.5-6.1,28.6-20.2c0.8-3.4-0.4-7.6-0.4-11.8v-21.3C-430.9,121.5-429.3,117.7-430.1,114.7z"/>
	<path d="M-288.8,49.9c-31.6-37-67.8-78.5-100.6-115.4c-5.3-5.7-10.3-11.4-15.2-17.1c-8.4-9.5-16-16.8-23.6-25.1
		c-8-8.4-23.6-10.3-29.7-11l-153.9-24c-66.7-10.3-123.8,32-123.8,98.3v231.2c0,66.7,57.1,128.8,123.8,139.4l215.6,33.5
		c66.7,10.3,117.7-35,117.7-101.7V97.1l1.5-1.1c0-15.2-3.4-36.2-10.3-44.2L-288.8,49.9z M-282.3,96.8v160.4
		c0,64-49.9,108.6-113.9,98.3l-215.6-33.5c-64-9.9-116.2-70.1-116.2-134.1V-43c0-64,52.2-105.5,116.2-95.6l153.5,24h0.4
		c4.6,0.8,20.2,2.3,27,9.9c7.6,8,15.2,16.4,23.6,25.9c5,5.7,9.9,11,15.2,16.8c32.8,36.6,69,78.5,100.6,115.4l1.9,1.9
		c5.3,6.1,8.8,25.1,8.4,40.8L-282.3,96.8z"/>
	<path d="M-397,12.2c27.8,27,52.2,31.6,71.6,35.4c12.6,2.3,22.9,5,30.9,11c-43.8-53-101.7-115.8-141-160.8
		c5.7,11.4,8.4,26.7,11,42.7C-420.2-34.3-415.2-5.3-397,12.2z"/>
</g>
<g>
	<g>
		<defs>
			<rect id="SVGID_1_" x="148.2" width="1623.6" height="1080"/>
		</defs>
		<clipPath id="SVGID_2_">
			<use xlink:href="#SVGID_1_"  overflow="visible"/>
		</clipPath>
		<g opacity="0.2" clip-path="url(#SVGID_2_)">
			
				<image overflow="visible" opacity="0.75" enable-background="new    " width="430" height="331" xlink:href="A93F5571B9A70B3.png"  transform="matrix(3.8095 0 0 3.8095 140.5714 232.381)">
			</image>
			<g>
				<g>
					<path d="M329.1,549c6.9,1.1,13.3,0.8,19-0.4c22.9-5.3,47.6-19,60.2-26.7c3.4-1.9,6.1-3.8,8.8-5.7c6.5-4.6,11.4-8,16.8-6.9
						c3.4,0.4,6.5,2.3,10.3,6.1c11.4,9.9,8,16.8,2.3,28.2c-1.5,2.7-3,6.1-4.6,9.5c-6.1,14.1-16.4,40.8-18.7,64.8
						c-3,29,22.9,63.2,45.7,84.2c21,19,40,29.7,58.3,32.4c32,5,55.2-15.6,76.2-33.9c1.9-1.5,3.8-3.8,5.3-5.3
						c3.4-3.8,7.2-7.2,10.3-8.8c4.6-1.9,8.8-1.5,12.2-1.1c3.4,0.4,6.1,0.4,8-1.9c15.2-17.9,16.8-19.8,16.4-22.5
						c-0.8-5.3-20.6-40-75.8-88c-15.2-13.3-25.9-20.2-37.3-27.4c-16.8-10.7-35.4-22.9-73.5-57.9c-37.7-34.7-51.8-53-64-68.6
						c-8.4-10.7-16.4-21-30.9-35c-49.9-48.4-85.7-66.7-93-67.8h-0.8c-2.7,0-4.2,1.9-19.8,19.4c-1.9,2.3-1.5,5-0.8,8.4
						c0.8,3.4,1.5,7.6,0,12.6c-0.8,3.4-4.2,7.2-7.2,11.4c-1.5,2.3-3.4,4.2-4.6,6.1c-24,36.2-51,77.3,13.7,137.5
						C278.9,527.2,305.1,545.1,329.1,549z M469.3,539.4c5-6.1,12.2-8.4,21-7.2c22.1,3.4,53.3,29.3,78.1,51.4
						c29,26.7,45.3,42.3,47.6,59.4c3.8,29-25.5,51.8-39.6,62.5c-18.7,14.5-34.3,19.8-50.7,17.1c-14.1-2.3-29-9.9-46.9-24.8
						c-2.7-2.3-5-4.2-7.2-6.5l-1.5-1.5c-4.6-4.6-8.8-9.1-12.2-14.1l-0.8-1.1c-3-4.2-5.7-8.4-8-12.6c-0.8-1.9-1.9-3.4-2.7-5.3l0,0
						c-3-6.9-5.3-13.7-6.5-21.3C432,587.4,465.5,544.4,469.3,539.4z M235,456L235,456c-0.4-2.3-0.8-3.8-1.1-5.7l-0.4-1.5
						c0-1.5-0.4-2.7-0.4-4.2v-2.3v-3.4l0.4-2.7l0.4-3.4l0.4-2.3c0.4-1.5,0.4-2.7,0.8-4.2l0.4-0.8c1.9-7.6,5.3-15.6,10.3-24.4
						c8.8-15.6,27.4-48,56-47.6c16.8,0.4,33.1,14.9,62.9,42.3c26.3,24.8,56.8,56.4,59.4,79.2c0.4,4.2,0,7.6-1.5,11l0,0
						c-0.8,1.5-1.5,3-2.3,4.2l0,0l-1.5,2.3c-4.6,5-45.7,47.6-97.1,39.6c-20.2-3-39.6-14.1-57.1-32C248.4,484.2,238.9,470.1,235,456z
						"/>
					<path d="M1370.3,891.4c48.8,7.6,100.2-25.9,185.1-81.9l3-1.9l0.4-1.1l-1.1-0.8c-150.5-30.9-219.8-142.5-237.3-175.6l-0.8-0.8
						h-0.8c-19.8,14.1-41.9,23.6-61.3,31.6c-30.9,13.3-55.6,23.6-57.9,46.9c-2.7,23.2,18.7,57.5,68.6,110.1
						C1308.2,864.4,1338.7,886.5,1370.3,891.4z"/>
					<path d="M1369.1,688.8l0.8,0.4l0,0l0.8-0.4c78.9-115.4,128-172.6,195-184.4l0.8-0.8v-1.1c-1.9-3-2.7-5.7-2.7-8l-0.8-1.1
						c-20.2-7.6-39.2-12.6-56.8-15.6c-110.9-17.1-146.3,64-177.5,135.6l-3.8,8.8v1.1C1332.6,638.9,1346.3,662.9,1369.1,688.8z"/>
					<path d="M1602.7,526.1c-5.7-0.8-12.2-3.8-19-7.6c-3.4-2.3-6.9-4.6-9.9-7.6l-1.1-0.4c-60.2,8.4-106.3,51-197,184.4l0.4,1.5
						c32.8,35.4,90.3,81.9,176.8,101l0,0l0.8-0.4c80.4-83.4,74.3-207.2,50.3-270.1L1602.7,526.1z"/>
					<path d="M1614.1,524.6h-1.5l-1.5,0.8l-0.4,1.1c23.2,62.5,29.7,186.3-47.6,271.2v1.1l1.1,0.8c3.8,0.8,7.6,1.5,11.4,1.9
						c2.3,0.4,4.6,0.8,6.9,1.1c59.8,1.5,104.4-25.5,111.2-67.8C1705.9,607.2,1693.7,596.2,1614.1,524.6z"/>
					<path d="M1572.6,502.1L1572.6,502.1c2.7,3,5.7,6.1,9.5,8.8c1.1,1.1,2.7,1.9,4.2,2.7c5.7,3.4,11.8,6.1,16.4,6.9
						c2.7,0.4,4.2,0.4,5.3-0.4l1.1-0.8c0.4-0.8,0-3.4-2.7-6.9c-3-3.8-8-8-13.7-11.4c-5.7-3.4-11.8-6.1-16.4-6.9
						c-3.8-0.8-5.7,0-6.1,1.1l0.4,2.3C1570.3,498.7,1571,500.2,1572.6,502.1z"/>
					<path d="M913.1,408l0.8,0.4V408c30.5,5.3,61.7-13.7,67.8-46.9l-7.6-3.4c-5.3,29.7-30.9,48-61,43.4c-30.1-4.6-55.6-30.9-61-62.1
						l-7.2,1.1C850.7,374.5,878.9,402.7,913.1,408z"/>
					<path d="M1058.3,515.4l77.3,11l19.8-74.7c-19.4-10.3-90.3-50.3-96-53.3c-5,9.5-15.2,29-15.2,59.4
						C1044.2,485,1053.7,507,1058.3,515.4z"/>
					<path d="M781.7,416.8c0-30.9-10.7-54.1-15.2-64.4l-0.8,0.4c-23.2,5.7-78.9,19.8-95.6,23.2l19.8,81.1l77.3,13.3
						C771.8,462.9,781.7,443.8,781.7,416.8z"/>
					<path d="M773,473.9l1.1,283l281.1,43.4V517.7c-7.6-8.4-16-31.6-16-61c0-31.6,9.9-51.4,15.2-61.3l-67-31.6
						c-6.9,35.4-37,56-73.9,50.3c-37.3-5.7-67.4-35.8-74.3-73.1l-66.7,10.7c7.2,16,15.2,37.7,15.2,66.3
						C787.8,446.5,777.1,466.7,773,473.9z"/>
					<path d="M865.5,360c10.3,18.7,27.8,31.6,47.2,34.7l0,0c19.4,3,37-4.6,47.2-20.2c-9.9,2.3-26.3,4.6-47.2,1.1
						C891.8,372.6,875.8,365.7,865.5,360z"/>
					<path d="M912.8,369.9c25.5,3.8,43.4,0,51.4-2.7c1.1-2.7,1.9-5.7,2.7-9.1c-3.4,1.1-7.2,2.3-11,3c-9.1,1.9-24,3.4-43.4,0.4
						c-27.8-4.2-46.5-15.2-54.1-20.2c0.8,3.4,1.5,6.9,3,10.3C869.7,356.6,887.6,366.1,912.8,369.9z"/>
					<path d="M569.5,938.7c25.5,24.8,47.6,29,65.5,32.4c11.4,2.3,20.6,4.6,28.2,9.9c-40-48.4-93-105.9-129.1-147
						c5.3,10.3,7.6,24.4,10.3,38.9C548.2,896.4,552.8,922.7,569.5,938.7z"/>
					<path d="M401.5,933.7c-9.1-1.5-17.1-1.9-21-1.5v61c3.8,1.5,10.7,2.7,17.5,3.8c24.8,3.8,40-6.5,40-27
						C438.5,950.9,425.1,937.5,401.5,933.7z"/>
					<path d="M625.1,974.1c-17.5-3.4-36.6-3.4-63.2-28.2c-11.4-10.7-19-25.1-20.2-39.6c-3.4-40.4-8.8-77-31.6-80v-1.1l-7.2-1.1
						L373,803.8c-55.2-8.8-102.9,29.3-102.9,84.6v211c0,55.2,47.6,110.1,102.9,118.9l196.6,30.9c55.2,8.8,96.8-32.4,96.8-87.6
						v-146.7C662.5,985.9,645,977.9,625.1,974.1z M467.4,1021.7c-16,12.2-41.5,15.2-69,11c-6.1-1.1-10.3-1.9-17.9-3.8v76.2
						l-45.7-7.2V892.2c15.2-0.4,36.2,1.1,64.8,5.7c29,4.6,50.3,13.3,64,26.3c13.3,12.6,22.5,31.2,22.5,51.4
						C486.1,995.8,480,1012.2,467.4,1021.7z M548.2,1132.2c-19.4-3-37-10.3-48.4-18.3l8.4-31.6c8.8,6.5,26.3,15.2,40,17.1
						c14.1,2.3,19.8-1.5,19.8-9.1c0-8-4.6-12.2-21.7-21c-31.2-15.2-43-33.9-43-51.8c0-28.2,24-45.7,61-40
						c17.5,2.7,32.8,9.5,41.9,15.2l-8,30.9c-6.9-4.6-19.8-11.8-32.4-13.7c-11.4-1.9-17.9,1.9-17.9,9.1s5.7,11.8,24.4,21.3
						c28.6,14.1,40,30.9,40.4,52.6C613,1121.9,590.9,1139,548.2,1132.2z"/>
					<path d="M668.6,973.3c-29-33.5-62.1-72-92.2-105.5c-4.6-5.3-9.5-10.7-13.7-15.6c-7.6-8.8-14.9-15.6-21.7-22.9
						c-7.2-7.6-21.7-9.1-27.4-10.3L372.2,797c-61-9.5-113.9,29-113.9,89.9v211c0,61,53,117.7,113.9,127.2l197.3,30.9
						c61,9.5,107.8-32,107.8-93v-146.7l1.1-0.8c0-13.7-2.3-33.1-8.8-40.4L668.6,973.3z M673.9,1016v146.7c0,58.7-45.3,99-104,89.9
						l-197.3-30.9c-58.7-8.8-106.3-64-106.3-122.7V887.6c0-58.7,47.6-96.8,106.3-87.6l140.2,21.7h0.4c4.2,0.8,18.3,2.3,24.8,9.1
						c6.9,7.2,14.1,14.9,21.7,23.6c4.6,5,9.1,10.3,14.1,15.6c30.1,33.5,62.9,71.6,92.2,105.5l1.5,1.9c5,5.7,7.6,22.9,7.6,37.3
						L673.9,1016z"/>
					<path d="M918.9,1017.9h-0.8c-3,9.9-6.1,27-9.5,38.5l-12.2,41.9l45.7,7.2l-13-45.7C925.7,1046.5,921.9,1028.6,918.9,1017.9z"/>
					<path d="M1116.6,1050.7c-12.6-2.3-25.5-3-41.9-12.2c-3.8,1.5-8,3-13,2.3c-14.9-2.3-24-14.1-24-27c0-3.8,0.8-7.6,1.9-10.7
						c-2.7-6.5-5.7-13.3-6.5-19.8c-3.4-40.4-9.1-77-32-80v-1.1l-7.2-1.1l-130.3-20.2c-55.2-8.8-102.5,29.3-102.5,84.6v211
						c0,55.2,47.2,110.1,102.9,118.9l197,30.9c55.2,8.8,96.8-32.4,96.8-87.6v-146.7C1153.9,1062.5,1136.4,1054.5,1116.6,1050.7z
						 M965,1195.8l-16-54.9l-59-9.1l-14.9,49.9l-48-7.6l62.9-195.8l61.3,9.5l64.4,215.6L965,1195.8z M1085.3,1214.5l-49.5-7.6
						v-149.7l49.5,7.6V1214.5z"/>
					<path d="M1160,1049.9c-29-33.5-62.1-72-92.2-105.5c-4.6-5.3-9.5-10.7-13.7-15.6c-7.6-8.8-14.9-15.6-21.7-22.9
						c-7.2-7.6-21.7-9.1-27.4-10.3l-141.3-22.1c-61-9.5-113.5,29-113.5,89.9v211c0,61,53,117.7,113.5,127.2l197.7,30.9
						c61,9.5,107.8-32,107.8-93V1093l1.1-0.8c0-13.7-2.3-33.1-8.8-40.4L1160,1049.9z M1165.3,1092.6v146.7c0,58.7-45.3,99-104,89.9
						L864,1298.3c-58.7-9.1-106.3-64-106.3-122.7V964.2c0-58.7,47.6-96.8,106.3-87.6l140.2,21.7h0.4c4.2,0.8,18.3,2.3,24.8,9.1
						c6.9,7.2,14.1,14.9,21.3,23.6c4.6,5,9.1,10.3,14.1,15.6c30.1,33.5,62.9,71.6,92.2,105.5l1.5,1.9c5,5.7,7.6,22.9,7.6,37.3
						L1165.3,1092.6z"/>
					<path d="M1060.6,1015.2c25.5,24.8,47.6,29,65.5,32.4c11.4,2.3,20.6,4.6,28.2,9.9c-40-48.4-93-105.9-129.1-147
						c5.3,10.3,7.6,24.4,10.3,38.9C1039.6,973,1044.2,999.2,1060.6,1015.2z"/>
					<path d="M1603.8,1126.9c-11.8-2.3-23.2-3-38.5-10.7v126.5c0,16.8,1.5,36.2,1.9,46.9l-41.1-6.5l-1.9-21.3h-0.8
						c-9.1,12.6-27.4,19.4-46.9,16.4c-35.4-5.7-64-41.1-64-87.6c-0.4-50.7,30.5-74.3,66.3-68.6c17.1,2.7,29.3,11,37,21.3v-81.1
						l6.5,0.8c-0.4,0-1.5-2.7-1.5-4.2c-3.4-40.4-8.8-77-31.6-80v-1.1l-7.2-1.1l-130.3-20.2c-55.2-8.8-102.5,29.3-102.5,84.6v211
						c0,55.2,47.6,110.1,102.9,118.9l197,30.9c55.2,8.8,96.8-32.4,96.8-87.6v-146.7C1641.5,1138.3,1623.2,1130.7,1603.8,1126.9z
						 M1382.5,1260.6l-45.7-7.2v-205.7l45.7,7.2V1260.6z"/>
					<path d="M1519.2,1146.3c-0.4-1.1-1.1-1.9-1.9-2.7v2.7H1519.2z"/>
					<path d="M1517.3,1185.1c-2.7-12.6-11-24.4-25.5-26.7c-21.3-3.4-32,14.1-32,37.7c0,25.5,12.6,43.4,32,46.5
						c13.3,2.3,22.5-5.7,25.1-18.3c0.8-3.4-1.1-7.2-1.1-10.7v-19.4C1515.8,1190.9,1517.7,1187.8,1517.3,1185.1z"/>
					<path d="M1647.2,1125.7c-29-33.5-61.7-72-91.8-105.5c-4.6-5.3-9.1-10.7-13.7-15.6c-7.6-8.8-14.9-15.6-21.7-22.9
						c-7.2-7.6-21.3-9.1-27.4-10.3l-141.3-22.1c-61-9.5-113.5,29-113.5,89.9v211c0,61,53,117.7,113.9,127.2l197.3,30.9
						c61,9.5,107.8-32,107.8-93v-146.7l1.1-0.8c0-13.7-3-33.1-9.5-40.4L1647.2,1125.7z M1653,1168.4V1315c0,58.7-45.3,99-104,89.9
						l-197.3-30.9c-58.7-9.1-106.3-64-106.3-122.7V1040c0-58.7,47.6-96.8,106.3-87.6l140.2,21.7h0.4c4.2,0.8,18.3,2.3,24.8,9.1
						c6.9,7.2,14.1,14.9,21.3,23.6c4.6,5,9.1,10.3,14.1,15.6c30.1,33.5,62.9,71.6,92.2,105.5l1.5,1.9c5,5.7,7.6,22.9,7.6,37.3
						L1653,1168.4z"/>
					<path d="M1548.2,1091c25.5,24.8,47.6,29,65.5,32.4c11.4,2.3,20.6,4.6,28.2,9.9c-40-48.4-93-105.9-129.1-147
						c5.3,10.3,7.6,24.4,10.3,38.9C1527.2,1048.8,1531.8,1075.4,1548.2,1091z"/>
				</g>
			</g>
		</g>
	</g>
	<g>
		<defs>
			<rect id="SVGID_3_" x="148.2" width="1623.6" height="1080"/>
		</defs>
		<clipPath id="SVGID_4_">
			<use xlink:href="#SVGID_3_"  overflow="visible"/>
		</clipPath>
		<g clip-path="url(#SVGID_4_)">
			<g>
				<defs>
					<rect id="SVGID_5_" x="124.2" y="0" width="1728.8" height="882.7"/>
				</defs>
				<clipPath id="SVGID_6_">
					<use xlink:href="#SVGID_5_"  overflow="visible"/>
				</clipPath>
				<g opacity="0.2" clip-path="url(#SVGID_6_)">
					
						<image overflow="visible" opacity="0.75" enable-background="new    " width="430" height="331" xlink:href="A93F5571B9A70B1.png"  transform="matrix(3.8095 0 0 3.8095 140.5714 -849.5238)">
					</image>
					<g>
						<g>
							<path d="M329.1-533c6.9,1.1,13.3,0.8,19-0.4c22.9-5.3,47.6-19,60.2-26.7c3.4-1.9,6.1-3.8,8.8-5.7c6.5-4.6,11.4-8,16.8-6.9
								c3.4,0.4,6.5,2.3,10.3,6.1c11.4,9.9,8,16.8,2.3,28.2c-1.5,2.7-3,6.1-4.6,9.5c-6.1,14.1-16.4,40.8-18.7,64.8
								c-3,29,22.9,63.2,45.7,84.2c21,19,40,29.7,58.3,32.4c32,5,55.2-15.6,76.2-33.9c1.9-1.5,3.8-3.8,5.3-5.3
								c3.4-3.8,7.2-7.2,10.3-8.8c4.6-1.9,8.8-1.5,12.2-1.1c3.4,0.4,6.1,0.4,8-1.9c15.2-17.9,16.8-19.8,16.4-22.5
								c-0.8-5.3-20.6-40-75.8-88c-15.2-13.3-25.9-20.2-37.3-27.4C525.7-547,507-559.2,469-594.3c-37.7-34.7-51.8-53-64-68.6
								c-8.4-10.7-16.4-21-30.9-35c-49.9-48.4-85.3-66.3-93-67.4h-0.8c-2.7,0-4.2,1.9-19.8,19.4c-1.9,2.3-1.5,5-0.8,8.4
								c0.8,3.4,1.5,7.6,0,12.6c-0.8,3.4-4.2,7.2-7.2,11.4c-1.5,2.3-3.4,4.2-4.6,6.1c-24,36.2-51,77.3,13.7,137.5
								C278.9-554.7,305.1-536.8,329.1-533z M469.3-542.5c5-6.1,12.2-8.4,21-7.2c22.1,3.4,53.3,29.3,78.1,51.4
								c29,26.7,45.3,42.3,47.6,59.4c3.8,29-25.5,51.8-39.6,62.5c-18.7,14.5-34.3,19.8-50.7,17.1c-14.1-2.3-29-9.9-46.9-24.8
								c-2.7-2.3-5-4.2-7.2-6.5l-1.5-1.5c-4.6-4.6-8.8-9.1-12.2-14.1l-0.8-1.1c-3-4.2-5.7-8.4-8-12.6c-0.8-1.9-1.9-3.4-2.7-5.3l0,0
								c-3-6.9-5.3-13.7-6.5-21.3C432-494.5,465.5-537.5,469.3-542.5z M235-625.9L235-625.9c-0.4-2.3-0.8-3.8-1.1-5.7l-0.4-1.5
								c0-1.5-0.4-2.7-0.4-4.2v-2.3v-3.4l0.4-2.7l0.4-3.4l0.4-2.3c0.4-1.5,0.4-2.7,0.8-4.2l0.4-0.8c1.9-7.6,5.3-15.6,10.3-24.4
								c8.8-15.6,27.4-48,56-47.6c16.8,0.4,33.1,14.9,62.9,42.3c26.3,24.8,56.8,56.4,59.4,79.2c0.4,4.2,0,7.6-1.5,11l0,0
								c-0.8,1.5-1.5,3-2.3,4.2l0,0l-1.5,2.3c-4.6,5-45.7,47.6-97.1,39.6c-20.2-3-39.6-14.1-57.1-32
								C248.4-597.7,238.9-611.8,235-625.9z"/>
							<path d="M1370.3-190.5c48.8,7.6,100.2-25.9,185.1-81.9l3-1.9l0.4-1.1l-1.1-0.8c-150.5-30.9-219.8-142.5-237.3-175.6l-0.8-0.8
								h-0.8c-19.8,14.1-41.9,23.6-61.3,31.6c-30.9,13.3-55.6,23.6-57.9,46.9c-2.7,23.2,18.7,57.5,68.6,110.1
								C1308.2-217.5,1338.7-195.4,1370.3-190.5z"/>
							<path d="M1369.1-393.1l0.8,0.4l0,0l0.8-0.4c78.9-115.4,128-172.6,195-184.4l0.8-0.8v-1.1c-1.9-3-2.7-5.7-2.7-8l-0.8-1.1
								c-20.2-7.6-39.2-12.6-56.8-15.6c-110.9-17.1-146.3,64-177.5,135.6l-3.8,8.8v1.1C1332.6-443,1346.3-419,1369.1-393.1z"/>
							<path d="M1602.7-555.8c-5.7-0.8-12.2-3.8-19-7.6c-3.4-2.3-6.9-4.6-9.9-7.6l-1.1-0.4c-60.2,8.4-106.3,51-197,184.4l0.4,1.5
								c32.8,35.4,90.3,81.9,176.8,101l0,0l0.8-0.4c80.4-83.4,74.3-207.2,50.3-270.1L1602.7-555.8z"/>
							<path d="M1614.1-557.3h-1.5l-1.5,0.8l-0.4,1.1c23.2,62.5,29.7,186.3-47.6,271.2v1.1l1.1,0.8c3.8,0.8,7.6,1.5,11.4,1.9
								c2.3,0.4,4.6,0.8,6.9,1.1c60.2,1.5,104.8-25.5,111.6-67.4C1705.9-474.7,1693.7-485.7,1614.1-557.3z"/>
							<path d="M1572.6-579.8L1572.6-579.8c2.7,3,5.7,6.1,9.5,8.8c1.1,1.1,2.7,1.9,4.2,2.7c5.7,3.4,11.8,6.1,16.4,6.9
								c2.7,0.4,4.2,0.4,5.3-0.4l1.1-0.8c0.4-0.8,0-3.4-2.7-6.9c-3-3.8-8-8-13.7-11.4c-5.7-3.4-11.8-6.1-16.4-6.9
								c-3.8-0.8-5.7,0-6.1,1.1l0.4,2.3C1570.3-583.2,1571-581.7,1572.6-579.8z"/>
							<path d="M913.1-673.9l0.8,0.4v-0.4c30.5,5.3,61.7-13.7,67.8-46.9l-7.6-3.4c-5.3,29.7-30.9,48-61,43.4
								c-30.1-4.6-55.6-30.9-61-62.1l-7.2,1.1C850.7-707.4,878.9-679.2,913.1-673.9z"/>
							<path d="M1058.3-566.5l77.3,11l19.8-74.7c-19.4-10.3-90.3-50.3-96-53.3c-5,9.5-15.2,29-15.2,59.4
								C1044.2-597,1053.7-574.9,1058.3-566.5z"/>
							<path d="M781.7-665.1c0-30.9-10.7-54.1-15.2-64.4l-0.8,0.4c-23.2,5.7-78.9,19.8-95.6,23.2l19.8,81.1l77.3,13.3
								C771.8-619,781.7-638.1,781.7-665.1z"/>
							<path d="M773-608l1.1,283l280.8,43.8v-282.7c-7.6-8.4-16-31.6-16-61c0-31.6,9.9-51.4,15.2-61.3l-67-31.6
								c-6.9,35.4-37,56-73.9,50.3c-37.3-5.7-67.4-35.8-74.3-73.1l-66.7,10.7c7.2,16,15.2,37.7,15.2,66.3
								C787.8-635.4,777.1-615.2,773-608z"/>
							<path d="M865.5-721.9c10.3,18.7,27.8,31.6,47.2,34.7l0,0c19.4,3,37-4.6,47.2-20.2c-9.9,2.3-26.3,4.6-47.2,1.1
								C891.8-709.3,875.8-716.2,865.5-721.9z"/>
							<path d="M912.8-712c25.5,3.8,43.4,0,51.4-2.7c1.1-2.7,1.9-5.7,2.7-9.1c-3.4,1.1-7.2,2.3-11,3c-9.1,1.9-24,3.4-43.4,0.4
								c-27.8-4.2-46.5-15.2-54.1-20.2c0.8,3.4,1.5,6.9,3,10.3C869.7-725.3,887.6-715.8,912.8-712z"/>
							<path d="M569.5-143.2c25.5,24.8,47.6,29,65.5,32.4c11.4,2.3,20.6,4.6,28.2,9.9c-40-48.4-93-105.9-129.1-147
								c5.3,10.3,7.6,24.4,10.3,38.9C548.2-185.5,552.8-159.2,569.5-143.2z"/>
							<path d="M401.5-148.2c-9.1-1.5-17.1-1.9-21-1.5v61c3.8,1.5,10.7,2.7,17.5,3.8c24.8,3.8,40-6.5,40-27
								C438.5-131,425.1-144.4,401.5-148.2z"/>
							<path d="M625.1-107.8c-17.5-3.4-36.6-3.4-63.2-28.2c-11.4-10.7-19-25.1-20.2-39.6c-3.4-40.4-8.8-77-31.6-80v-1.1l-7.2-1.1
								L373-278.1c-55.2-8.8-102.9,29.3-102.9,84.6V17.9c0,55.2,47.6,110.1,102.9,118.9l196.6,30.9c55.2,8.8,96.8-32.4,96.8-87.6
								V-66.7C662.5-96,645-104,625.1-107.8z M467.4-60.2c-16,12.2-41.5,15.2-69,11c-6.1-1.1-10.3-1.9-17.9-3.8v75.8L334.9,16
								v-205.7c15.2-0.4,36.2,1.1,64.8,5.7c29,4.6,50.3,13.3,64,26.3c13.3,12.6,22.5,31.2,22.5,51.4S480-69.7,467.4-60.2z
								 M548.2,50.3c-19.4-3-37-10.3-48.4-18.3l8.4-31.6c8.8,6.5,26.3,15.2,40,17.1C562.3,19.8,568,16,568,8.4c0-8-4.6-12.2-21.7-21
								c-31.2-15.2-43-33.9-43-51.8c0-28.2,24-45.7,61-40c17.5,2.7,32.8,9.5,41.9,15.2l-8,30.9c-6.9-4.6-19.8-11.8-32.4-13.7
								c-11.4-1.9-17.9,1.9-17.9,9.1s5.7,11.8,24.4,21.3c28.6,14.9,40.4,31.6,40.8,53.3C613,40,590.9,57.1,548.2,50.3z"/>
							<path d="M668.6-108.6c-29-33.5-62.1-72-92.2-105.5c-4.6-5.3-9.5-10.7-13.7-15.6c-7.6-8.8-14.9-15.6-21.7-22.9
								c-7.2-7.6-21.7-9.1-27.4-10.3L372.2-285c-60.6-9.5-113.5,29-113.5,89.9V16c0,61,53,117.7,113.9,127.2l197.3,30.9
								c61,9.5,107.8-32,107.8-93V-65.5l1.1-0.8c0-13.7-2.3-33.1-8.8-40.4L668.6-108.6z M673.9-65.9V80.8c0,58.7-45.3,99-104,89.9
								l-197.3-30.9c-58.7-8.8-106.3-64-106.3-122.7v-211.4c0-58.7,47.6-96.8,106.3-87.6l140.2,21.7h0.4c4.2,0.8,18.3,2.3,24.8,9.1
								c6.9,7.2,14.1,14.9,21.7,23.6c4.6,5,9.1,10.3,14.1,15.6c30.1,33.5,62.9,71.6,92.2,105.5l1.5,1.9c5,5.7,7.6,22.9,7.6,37.3
								L673.9-65.9z"/>
							<path d="M918.9-64h-0.8c-3,9.9-6.1,27-9.5,38.5l-12.2,41.9l45.7,7.2l-13-45.7C925.7-35.4,921.9-53.3,918.9-64z"/>
							<path d="M1116.6-31.2c-12.6-2.3-25.5-3-41.9-12.2c-3.8,1.5-8,3-13,2.3c-14.9-2.3-24-14.1-24-27c0-3.8,0.8-7.6,1.9-10.7
								c-2.7-6.5-5.7-13.3-6.5-19.8c-3.4-40.4-9.1-77-32-80v-1.1l-7.2-1.1l-130.3-20.2c-55.2-8.8-102.5,29.3-102.5,84.6v211
								c0,55.2,47.2,110.1,102.9,118.9l197,30.9c55.2,8.8,96.8-32.4,96.8-87.6V9.5C1153.9-19.4,1136.4-27.4,1116.6-31.2z M965,113.9
								L949,59l-59-9.1L875,99.8l-48-7.6l62.9-195.8l61.3,9.5l64.4,215.6L965,113.9z M1085.3,132.6l-49.5-7.6V-24.8l49.5,7.6V132.6z
								"/>
							<path d="M1160-32c-29-33.5-62.1-72-92.2-105.5c-4.6-5.3-9.5-10.7-13.7-15.6c-7.6-8.8-14.9-15.6-21.7-22.9
								c-7.2-7.6-21.7-9.1-27.4-10.3l-141.3-22.1c-61-9.5-113.5,29-113.5,89.9v211c0,61,53,117.7,113.5,127.2l197.7,30.9
								c61,9.5,107.8-32,107.8-93V11l1.1-0.8c0-13.7-2.3-33.1-8.8-40.4L1160-32z M1165.3,10.7v146.7c0,58.7-45.3,99-104,89.9
								L864,216.4c-58.7-8.8-106.3-64-106.3-122.7v-211.4c0-58.7,47.6-96.8,106.3-87.6l140.2,21.7h0.4c4.2,0.8,18.3,2.3,24.8,9.1
								c6.9,7.2,14.1,14.9,21.3,23.6c4.6,5,9.1,10.3,14.1,15.6c30.1,33.5,62.9,71.6,92.2,105.5l1.5,1.9c5,5.7,7.6,22.9,7.6,37.3
								L1165.3,10.7z"/>
							<path d="M1060.6-66.7c25.5,24.8,47.6,29,65.5,32.4c11.4,2.3,20.6,4.6,28.2,9.9c-40-48.4-93-105.9-129.1-147
								c5.3,10.3,7.6,24.4,10.3,38.9C1039.6-109,1044.2-82.7,1060.6-66.7z"/>
							<path d="M1603.8,45c-11.8-2.3-23.2-3.4-38.5-10.7v126.5c0,16.8,1.5,36.2,1.9,46.9l-41.1-6.5l-1.9-21.3h-0.8
								c-9.1,12.6-27.4,19.4-46.9,16.4c-35.4-5.7-64-41.1-64-87.6c-0.4-50.7,30.5-74.3,66.3-68.6c17.1,2.7,29.3,11,37,21.3v-81.1
								l6.5,0.8c-0.4,0-1.5-2.7-1.5-4.2c-3.4-40.4-8.8-77-31.6-80v-1.1l-7.2-1.1l-130.3-20.2c-55.2-8.8-102.5,29.3-102.5,84.6v211
								c0,55.2,47.6,110.1,102.9,118.9l197,30.9c55.2,8.8,96.8-32.4,96.8-87.6V85.3C1641.5,56.4,1623.2,48.8,1603.8,45z
								 M1382.5,178.7l-45.7-7.2V-34.3l45.7,7.2V178.7z"/>
							<path d="M1519.2,64.4c-0.4-1.1-1.1-1.9-1.9-2.7v2.7H1519.2z"/>
							<path d="M1517.3,103.2c-2.7-12.6-11-24.4-25.5-26.7c-21.3-3.4-32,14.1-32,37.7c0,25.5,12.6,43.4,32,46.5
								c13.3,2.3,22.5-5.7,25.1-18.3c0.8-3.4-1.1-7.2-1.1-10.7v-19.4C1515.8,109,1517.7,105.9,1517.3,103.2z"/>
							<path d="M1647.2,43.8c-29-33.5-61.7-72-91.8-105.5c-4.6-5.3-9.1-10.7-13.7-15.6c-7.6-8.8-14.9-15.6-21.7-22.9
								c-7.2-7.6-21.3-9.1-27.4-10.3l-141.3-22.1c-61-9.5-113.5,29-113.5,89.9v211c0,61,53,117.7,113.9,127.2l197.3,30.9
								c61,9.5,107.8-32,107.8-93V86.9l1.1-0.8c0-13.7-3-33.1-9.5-40.4L1647.2,43.8z M1653,86.5v146.7c0,58.7-45.3,99-104,89.9
								l-197.3-30.9c-58.7-8.8-106.3-63.6-106.3-122.3V-41.5c0-58.7,47.6-96.8,106.3-87.6l140.2,21.7h0.4c4.2,0.8,18.3,2.3,24.8,9.1
								c6.9,7.2,14.1,14.9,21.3,23.6c4.6,5,9.1,10.3,14.1,15.6c30.1,33.5,62.9,71.6,92.2,105.5l1.5,1.9c5,5.7,7.6,22.9,7.6,37.3
								L1653,86.5z"/>
							<path d="M1548.2,9.1c25.5,24.8,47.6,29,65.5,32.4c11.4,2.3,20.6,4.6,28.2,9.9c-40-48.4-93-105.9-129.1-147
								c5.3,10.3,7.6,24.4,10.3,38.9C1527.2-33.1,1531.8-6.5,1548.2,9.1z"/>
						</g>
					</g>
				</g>
			</g>
			<g>
				<defs>
					<rect id="SVGID_7_" x="148.2" width="1623.6" height="1080"/>
				</defs>
				<clipPath id="SVGID_8_">
					<use xlink:href="#SVGID_7_"  overflow="visible"/>
				</clipPath>
				<g clip-path="url(#SVGID_8_)">
					<g>
						<g>
							<g>
								<path fill="#2F5811" d="M1014.9,1502.1c0.4,32.4-27.8,56.4-62.5,53l-262.1-26.3c-34.7-3.4-63.2-32.8-63.6-65.5l-2.3-245.3
									c-0.4-32.4,27.8-56.4,62.5-53l262.1,26.3c34.7,3.4,63.2,32.8,63.6,65.5L1014.9,1502.1z"/>
							</g>
							<g>
								<path fill="#5DAF22" d="M990.1,1474.7c0.4,32.4-25.9,56.4-58.7,53l-245.3-26.3c-32.4-3.4-59.4-33.1-59.8-65.5l-2.3-245.3
									c-0.4-32.4,25.9-56.4,58.7-53l245.3,26.3c32.4,3.4,59.4,33.1,59.8,65.5L990.1,1474.7z"/>
							</g>
						</g>
					</g>
					<path fill="#46831A" d="M870.5,1385.5l-29-16.4L870.5,1385.5l1.1-47.6c7.2-5.3-2.7-20.6,2.7-21.3l1.9-23.6l-99-10.7l-0.4-34.7
						h-1.5L625.5,1373l0.8,62.5c0.4,32.4,27,62.1,59.8,65.5l64.4,6.9L879.6,1400l-8.4-0.8L870.5,1385.5z"/>
					<g>
						<path fill="#FFFFFF" d="M882.3,1265.5c0-3.8-3.4-7.6-7.2-8l-96-10.3c-3.8-0.4-7.2,2.3-6.9,6.5l0.4,21v10.7l0.8,88
							c-3.8-1.5-7.6-2.7-12.2-3c-16-1.9-29,5.7-28.6,16.4c0,10.7,13,21,29,22.9c14.9,1.5,27-5,28.6-14.5h0.4l-0.8-100.6l76.6,8.4
							l0.8,67.8c-3.8-1.5-7.6-2.7-12.2-3c-16-1.9-29,5.7-28.6,16.4c0,10.7,13,21,29,22.5c16,1.9,29-5.7,28.6-16.4v-0.4l0,0
							l-0.8-91.8v-0.4L882.3,1265.5z"/>
					</g>
				</g>
			</g>
			<g>
				<defs>
					<rect id="SVGID_9_" x="148.2" width="1623.6" height="1080"/>
				</defs>
				<clipPath id="SVGID_10_">
					<use xlink:href="#SVGID_9_"  overflow="visible"/>
				</clipPath>
				<g clip-path="url(#SVGID_10_)">
					<g>
						<g>
							<g>
								<path fill="#2F5811" d="M1014.9-192.8c0.4,32.4-27.8,56.4-62.5,53l-262.1-26.3c-34.7-3.4-63.2-32.8-63.6-65.5L624.4-477
									c-0.4-32.4,27.8-56.4,62.5-53L949-503.6c34.7,3.4,63.2,32.8,63.6,65.5L1014.9-192.8z"/>
							</g>
							<g>
								<path fill="#5DAF22" d="M990.1-220.6c0.4,32.4-25.9,56.4-58.7,53l-245.3-26.7c-32.4-3.4-59.4-33.1-59.8-65.5L624-505.1
									c-0.4-32.4,25.9-56.4,58.7-53L928-531.8c32.4,3.4,59.4,33.1,59.8,65.5L990.1-220.6z"/>
							</g>
						</g>
					</g>
					<path fill="#46831A" d="M870.5-309.7l-29-16.4L870.5-309.7l1.1-47.6c7.2-5.3-2.7-20.6,2.7-21.3l1.9-23.6l-99-10.7l-0.4-34.7
						h-1.5L625.5-322.3l0.8,62.5c0.4,32.4,27,62.1,59.8,65.5l64.4,6.9l129.1-107.8l-8.4-0.8L870.5-309.7z"/>
					<g>
						<path fill="#FFFFFF" d="M882.3-429.7c0-3.8-3.4-7.6-7.2-8L779-448c-3.8-0.4-7.2,2.3-6.9,6.5l0.4,21v10.7l0.8,88
							c-3.8-1.5-7.6-2.7-12.2-3c-16-1.9-29,5.7-28.6,16.4c0,10.7,13,21,29,22.9c14.9,1.5,27-5,28.6-14.5h0.4l-0.8-100.6l76.6,8.4
							l0.8,67.8c-3.8-1.5-7.6-2.7-12.2-3c-16-1.9-29,5.7-28.6,16.4c0,10.7,13,21,29,22.5c16,1.9,29-5.7,28.6-16.4v-0.4l0,0
							l-0.8-91.8v-0.4L882.3-429.7z"/>
					</g>
				</g>
			</g>
		</g>
		<g id="Layer_34" clip-path="url(#SVGID_4_)">
		</g>
	</g>
</g>
</svg>
