<svg xmlns="http://www.w3.org/2000/svg" viewBox="0 0 466 310" enable-background="new 0 0 466 310"><style type="text/css">.st0{opacity:0.2;}</style><g class="st0"><path d="M123.8 95.4c-4.4-3.1-7.4-4.6-10.7-6.2-4.8-2.3-10.2-5-21.1-13.3-10.9-8.4-14.8-12.9-18.4-16.9-2.4-2.7-4.7-5.3-8.8-8.7-14.3-11.6-24.5-15.2-26.6-15.2h-.2c-.8.1-1.2.7-5.7 6.4-.5.7-.4 1.5-.2 2.4.2.9.4 2.1 0 3.6-.2 1-1.2 2.3-2.1 3.6-.5.7-.9 1.4-1.3 2-6.8 11.5-14.6 24.5 4 38.9 4.8 3.8 12.4 7.8 19.3 7.8 2 0 3.8-.3 5.4-1 6.5-2.5 13.6-7.5 17.3-10.3.9-.7 1.8-1.4 2.5-2 1.8-1.6 3.3-2.8 4.8-2.8.9 0 1.9.4 3 1.3 3.3 2.4 2.3 4.5.6 8-.4.9-.9 1.9-1.3 3-1.7 4.3-4.7 12.4-5.4 19.4-.9 8.4 6.5 17.2 13.1 22.1 6 4.5 11.5 6.7 16.7 6.7 9.2 0 15.9-7 21.8-13.1l1.6-1.8c1-1.2 2-2.4 2.9-2.9 1.3-.7 2.5-.8 3.4-.9 1-.1 1.7-.1 2.3-.9 4.4-5.8 4.8-6.4 4.7-7.2-.1-1.7-5.8-10.7-21.6-22m-45.1-17.8c-.2.5-.4.9-.7 1.4l-.4.7c-1.3 1.6-13.1 15.7-27.8 15.7-5.8 0-11.3-2.2-16.4-6.6-4.5-3.9-7.2-7.6-8.3-11.5v-.1l-.3-1.5-.1-.4c0-.4-.1-.8-.1-1.1v-1.7l.1-.8.1-1 .1-.6.2-1.2.1-.2c.6-2.3 1.6-4.8 3-7.4 2.6-4.9 7.9-15.1 16-16.1 4.8-.6 9.5 2.8 18 9.3 7.6 6 16.3 13.6 17 20.1 0 .9-.2 2-.5 3m44.4 56.2c-5.4 5-9.9 7.2-14.6 7.2-4 0-8.3-1.6-13.4-5.1l-2.1-1.5-.4-.4c-1.3-1.1-2.5-2.2-3.5-3.5l-.2-.3c-.9-1-1.6-2.1-2.3-3.3-.3-.5-.5-1-.7-1.4-.9-1.8-1.5-3.7-1.9-5.8-2.4-13.6 7.2-27.4 8.3-29 1.4-2 3.5-3 6.1-3 6.4 0 15.4 6 22.5 11.3 8.3 6.3 13.1 10.1 13.7 14.9.9 8.3-7.5 16.1-11.5 19.9M321.6 135c11.4 11.6 20.1 16.5 29.3 16.5 14 0 28.7-12 53.2-31.7l.9-.7.1-.3-.3-.2c-43.2-2.1-63-31-68.1-39.8l-.2-.2-.3.1c-5.7 4.9-12 8.6-17.6 11.9-8.9 5.2-15.9 9.3-16.6 16-.8 6.7 5.3 15.5 19.6 28.4M407.2 31.5v-.3c-.6-.8-.8-1.5-.8-2.1l-.3-.3c-5.8-1.2-11.3-1.9-16.3-1.9-31.9 0-42 24.9-51 46.8l-1.1 2.7v.3c2.2 4.1 6.2 10.3 12.7 16.7l.2.1.2-.2c22.6-36.7 36.8-55.3 56-61.6l.4-.2M403.2 116.4l.3-.1c23.1-27.6 21.3-62.8 14.5-79.8l-.4-.2c-1.6 0-3.5-.5-5.4-1.4-1-.5-2-1-2.9-1.7l-.3-.1c-17.3 5.1-30.5 19.5-56.6 61.7l.1.4c9.4 8.8 25.8 19.6 50.7 21.2M420.4 35.4l-.4.3-.1.4c6.7 16.9 8.6 52.1-13.6 80v.3l.3.2 3.3.1h2c17.2-2.2 30-12 32-24.4 3.4-37.2-.1-39.8-22.9-56.9h-.6M408.9 30.8c.6.7 1.6 1.4 2.6 2l1.2.6c1.7.8 3.4 1.2 4.7 1.2.7 0 1.2-.1 1.5-.3l.3-.3c.2-.3 0-.9-.8-1.8-.9-1-2.3-2-3.9-2.7-1.7-.8-3.4-1.2-4.7-1.2-1.1 0-1.7.3-1.8.6l.1.7c.1.3.3.7.8 1.2M199.9 16.7c1.7 9.7 9.7 16.5 19.6 16.5v.1-.1c9.9 0 17.9-6.8 19.6-16.5l-2.1-.7c-1.5 8.8-8.8 15.2-17.4 15.2-8.6 0-15.9-6.4-17.4-15.2l-2.3.7M257.2 41.6c0 7.8 2.8 13.7 4 16l22.2-.3 5.7-22.4c-5.5-2-25.9-10.4-27.6-11-1.4 2.9-4.3 8.9-4.3 17.7M181.9 41.6c0-8.8-3-15-4.4-17.8l-.2.1c-6.7 2.7-22.6 9.2-27.4 11l5.7 22.4 22.2.3c1.2-2.3 4.1-8.3 4.1-16M259.9 23.3l-19.2-6.1c-1.9 10.4-10.6 17.7-21.2 17.7-10.7 0-19.4-7.3-21.3-17.7l-19.1 6.1c2.1 4.2 4.4 10.1 4.4 18.3 0 8.3-3 14.5-4.3 16.8v81.2h80.4v-81.1c-1.3-2.2-4.3-8.5-4.3-16.9.1-9.1 3.1-15.3 4.6-18.3M205.9 21.6c2.9 4.9 8 7.9 13.5 7.9 5.6 0 10.6-2.9 13.6-7.9-2.9 1.1-7.5 2.4-13.6 2.4-6 0-10.6-1.3-13.5-2.4M235.1 16.4c-1 .5-2 1-3.1 1.3-2.6.9-6.9 2.1-12.5 2.1-7.9 0-13.4-2.3-15.6-3.4.2.9.5 1.9.9 2.8 2.3 1.1 7.4 3 14.7 3 7.3 0 12.4-1.9 14.8-3.1.3-.7.6-1.7.8-2.7"/></g><g class="st0"><path d="M120.9 200.9c7.3 5.9 13.7 6.2 18.8 6.4 3.3.1 6 .4 8.1 1.6-11.5-12.1-26.7-26.3-37-36.5 1.5 2.7 2.2 6.7 2.9 10.7 1.1 6.6 2.4 14 7.2 17.8zM72.9 206.9c-2.6 0-4.9.2-5.9.4v17.5c1 .3 2.9.4 4.9.4 7.1 0 11.5-3.6 11.5-9.6 0-5.4-3.8-8.7-10.5-8.7zM137.1 208.6c-5.1-.2-10.6.6-18.3-5.2-3.3-2.5-5.4-6.4-5.8-10.5-1-11.4-3-21.6-9-21.6v-.3h-39.5c-15.9 0-29.5 13-29.5 28.9v60.6c0 15.9 13.6 29.5 29.5 29.5h56.6c15.9 0 27.9-13.6 27.9-29.5v-42.1c-1-8.1-6.3-9.6-11.9-9.8zm-45.4 20.7c-4.6 4.2-11.8 6.2-19.7 6.2-1.8 0-3-.1-5-.4v21.9h-13v-59c4-.7 10.2-1.2 18.4-1.2 8.3 0 14.3 1.6 18.3 4.7 3.9 3 6.4 7.9 6.4 13.7s-1.8 10.8-5.4 14.1zm23.1 28.1c-5.6 0-10.6-1.3-13.9-3.1l2.4-9.5c2.5 1.5 7.6 3.2 11.5 3.2 4 0 5.7-1.3 5.7-3.5 0-2.3-1.3-3.3-6.2-5-9-3-12.4-7.8-12.3-12.9 0-8.1 6.9-14.2 17.5-14.2 5 0 9.4 1.2 12 2.5l-2.3 9.2c-1.9-1.1-5.7-2.5-9.3-2.5-3.3 0-5.1 1.3-5.1 3.4 0 2.1 1.7 3.2 6.9 5 8.2 2.8 11.5 7 11.6 13.3.1 8.2-6.2 14.1-18.5 14.1zM149.9 206.9l-.5-.5c-8.3-8.4-17.8-17.9-26.4-26.2-1.4-1.3-2.7-2.6-4-3.9-2.2-2.1-4.2-3.8-6.2-5.6-2.1-1.9-6.2-1.7-7.9-1.7h-40.4c-17.5 0-32.5 13.4-32.5 30.9v60.6c0 17.5 15 31.5 32.5 31.5h56.6c17.5 0 30.9-14 30.9-31.5v-42.1l.4-.3c0-4-.7-9.4-2.5-11.2zm1.1 53.6c0 16.8-13.1 30.5-29.9 30.5h-56.6c-16.8 0-30.5-13.7-30.5-30.5v-60.6c0-16.9 13.7-29.9 30.5-29.9h40.4c1.2 0 5.3-.2 7.1 1.5 2 1.8 4 3.7 6.2 5.8 1.3 1.3 2.6 2.5 4 3.8 8.6 8.3 18.1 17.8 26.4 26.1l.5.5c1.4 1.4 2.3 6.2 2.2 10.3l-.3.3v42.2zM221.2 208h-.2c-.9 3-1.8 8-2.7 11.4l-3.5 12.6h13.1l-3.7-12.6c-1.1-3.5-2.1-8.4-3-11.4zM278.1 208.6c-3.6-.1-7.3.2-12.1-1.6-1.1.6-2.4 1.2-3.7 1.2-4.2 0-6.9-3-6.9-6.7 0-1.1.2-2.2.6-3.2-.8-1.7-1.7-3.5-1.8-5.4-1-11.4-3.1-21.6-9.1-21.6v-.3h-39.5c-15.9 0-29.5 13-29.5 28.9v60.6c0 15.9 13.6 29.5 29.5 29.5h56.6c15.9 0 27.9-13.6 27.9-29.5v-42.1c-1.1-8.1-6.4-9.6-12-9.8zm-43.7 48.4l-4.6-15h-17l-4.2 15h-13.8l18-59h17.6l18.5 59h-14.5zm34.6 0h-14v-43h14v43zM290.9 206.9l-.5-.5c-8.3-8.4-17.8-17.9-26.4-26.2-1.4-1.3-2.7-2.6-4-3.9-2.2-2.1-4.2-3.8-6.2-5.6-2.1-1.9-6.2-1.7-7.9-1.7h-40.4c-17.5 0-32.5 13.4-32.5 30.9v60.6c0 17.5 15 31.5 32.5 31.5h56.6c17.5 0 30.9-14 30.9-31.5v-42.1l.4-.3c0-4-.7-9.4-2.5-11.2zm1.1 53.6c0 16.8-13.1 30.5-29.9 30.5h-56.6c-16.8 0-30.5-13.7-30.5-30.5v-60.6c0-16.8 13.7-29.9 30.5-29.9h40.4c1.2 0 5.3-.2 7.1 1.5 2 1.8 4 3.7 6.2 5.8 1.3 1.3 2.6 2.5 4 3.8 8.6 8.3 18.1 17.8 26.4 26.1l.5.5c1.4 1.4 2.3 6.2 2.2 10.3l-.3.3v42.2zM261.9 200.9c7.3 5.9 13.7 6.2 18.8 6.4 3.3.1 6 .4 8.1 1.6-11.5-12.1-26.7-26.3-37-36.5 1.5 2.7 2.2 6.7 2.9 10.7 1.1 6.6 2.4 14 7.2 17.8zM418 208.6c-3.4-.1-7 .2-11-1.3v36.3c0 4.8.3 10.4.5 13.4h-11.9l-.5-6h-.3c-2.6 4-7.9 6.8-13.5 6.8-10.2 0-18.4-8.9-18.4-22.3-.1-14.5 9-22.7 19.3-22.7 5.4 0 9.4 2.1 11.3 5.1h-.5v-24h1.6c-.1 0-.5-.7-.5-1.1-1-11.4-3.1-21.6-9.1-21.6v-.2h-39.5c-15.9 0-29.5 13-29.5 28.9v60.6c0 15.9 13.6 29.5 29.5 29.5h56.6c15.9 0 27.9-13.6 27.9-29.5v-42.1c-1-8.1-6.3-9.6-12-9.8zm-64 48.4h-13v-59h13v59zM385.7 222.7c-6.2 0-9.2 5.5-9.2 12.2 0 7.3 3.6 11.9 9.1 11.9 3.9 0 6.7-2.6 7.5-6.4.2-1-.1-2-.1-3.1v-5.6c0-.7.4-1.7.2-2.5-.8-3.5-3.3-6.5-7.5-6.5zM433.4 218.1c0-4-.9-9.4-2.7-11.2l-.4-.5c-8.3-8.4-17.8-17.9-26.4-26.2-1.4-1.3-2.7-2.6-4-3.9-2.2-2.1-4.2-3.8-6.2-5.6-2.1-1.9-6.2-1.7-7.8-1.7h-40.4c-17.5 0-32.5 13.4-32.5 30.9v60.6c0 17.5 15 31.5 32.5 31.5h56.6c17.5 0 30.9-14 30.9-31.5v-42.1l.4-.3zm-1.4 42.4c0 16.8-13.1 30.5-29.9 30.5h-56.6c-16.8 0-30.5-13.7-30.5-30.5v-60.6c0-16.8 13.7-29.9 30.5-29.9h40.4c1.2 0 5.3-.2 7.1 1.5 2 1.8 4 3.7 6.2 5.8 1.3 1.3 2.6 2.5 4 3.8 8.6 8.3 18.1 17.8 26.4 26.1l.5.5c1.4 1.4 2.3 6.2 2.2 10.3l-.3.3v42.2zM401.9 200.9c7.3 5.9 13.7 6.2 18.8 6.4 3.3.1 6 .4 8.1 1.6-11.5-12.1-26.7-26.3-37-36.5 1.5 2.7 2.2 6.7 2.9 10.7 1.1 6.6 2.4 14 7.2 17.8z"/></g></svg>